<?xml version="1.0" standalone="no"?><!DOCTYPE svg PUBLIC "-//W3C//DTD SVG 1.1//EN" "http://www.w3.org/Graphics/SVG/1.1/DTD/svg11.dtd"><svg t="1761145730234" class="icon" viewBox="0 0 1024 1024" version="1.1" xmlns="http://www.w3.org/2000/svg" p-id="18608" xmlns:xlink="http://www.w3.org/1999/xlink" width="200" height="200"><path d="M719.36 717.312c-29.184 60.928-65.536 102.4-97.28 129.536-40.448 34.816-78.848 52.224-98.304 59.392l0.512-95.744c68.096-7.68 145.92-45.568 195.072-93.184zM510.464 515.584l-1.024 147.968h-3.584c-12.288 0.512-24.064-1.024-35.84-3.584-101.376-23.552-177.664-153.6-188.416-171.52 6.144-54.784 19.968-105.984 38.4-151.552 24.064 46.592 100.352 179.2 186.368 179.2 1.536 0 3.072 0 4.096-0.512zM508.928 811.52l-0.512 96.256c-17.408-6.656-64.512-28.16-111.616-72.192-31.744-30.208-67.584-74.24-91.136-137.216 42.496 37.888 135.68 113.152 202.752 113.152h0.512zM655.872 194.56c24.576 34.304 50.176 76.288 70.656 123.904-6.144 31.744-34.816 75.264-74.24 111.104-40.448 36.864-85.504 61.44-125.952 68.608L527.36 343.04c13.824-3.584 28.16-12.288 42.496-26.624 33.792-33.792 64-96.256 70.656-142.336 5.12 6.656 10.24 13.312 15.36 20.48z" fill="#d81e06" p-id="18609"></path><path d="M509.44 679.424l-0.512 116.224c-76.288 1.024-197.632-112.64-213.504-128-10.24-35.84-16.384-76.8-16.384-123.904 0-9.728 0.512-19.968 1.024-29.184 11.776 18.944 31.744 47.616 57.856 75.776 41.984 45.568 86.016 74.24 129.024 84.48 11.776 3.072 24.064 4.608 35.84 4.608h4.096c0.512 0.512 1.536 0 2.56 0z" fill="#d81e06" p-id="18610"></path><path d="M773.12 413.184l-15.36 3.072c-2.56-12.8-6.144-25.6-9.728-37.888l14.848-4.608c4.096 12.8 7.68 26.112 10.24 39.424z" fill="#d81e06" p-id="18611"></path><path d="M767.488 498.688c0.512 21.504-0.512 43.008-3.584 65.024-5.632 39.424-14.336 74.24-24.576 104.96-36.864 60.416-132.608 115.712-214.528 125.44l0.512-116.736c86.528-12.288 168.448-81.408 217.6-143.36 4.608-5.632 15.872-19.968 24.576-35.328z" fill="#d81e06" p-id="18612"></path><path d="M470.016 660.48c11.776 2.56 23.552 4.096 35.84 3.584l0.512 15.36h-4.096c-11.776 0-24.064-1.536-35.84-4.608l3.584-14.336z" fill="#d81e06" p-id="18613"></path><path d="M626.176 156.16c0.512 41.984-31.744 113.664-67.584 149.504-10.752 10.752-21.504 17.92-31.232 21.504l1.536-271.36c18.944 15.872 57.344 50.688 97.28 100.352z" fill="#d81e06" p-id="18614"></path><path d="M528.896 55.296l-1.536 271.36c9.728-3.584 20.48-10.752 31.232-21.504 35.84-35.84 68.096-107.52 67.584-149.504-39.936-49.152-78.336-83.968-97.28-100.352zM305.152 698.368c23.552 62.464 59.392 107.008 91.136 137.216 47.104 44.032 94.208 65.536 111.616 72.192l0.512-96.256h-1.024c-66.56 0-159.744-75.264-202.24-113.152z m219.136 112.128l-0.512 95.744c19.456-7.168 57.856-24.576 98.304-59.392 31.744-27.136 68.096-68.608 97.28-129.536-49.152 47.616-126.976 85.504-195.072 93.184zM407.04 178.688c15.872 44.032 61.952 146.944 104.96 150.528l1.536-272.896c-20.48 18.944-63.488 61.952-106.496 122.368z m360.448 320c-8.704 15.36-19.968 29.696-25.088 35.84-48.64 61.952-131.072 131.072-217.6 143.36l-0.512 116.736c81.92-9.728 177.664-65.024 214.528-125.44 10.752-31.232 19.456-66.048 24.576-104.96 3.584-22.528 4.608-44.032 4.096-65.536z m-197.632-182.272c-14.336 14.336-28.672 23.04-42.496 26.624l-1.024 155.136c40.448-7.168 85.504-31.744 125.952-68.608 39.424-36.352 68.608-79.36 74.24-111.104-20.48-47.616-46.08-89.6-70.656-123.904-5.12-7.168-10.24-14.336-15.36-20.992-6.656 46.592-36.864 108.544-70.656 142.848z m-241.664 1.024c12.288 25.6 95.744 187.904 182.784 182.784l1.024-155.648c-53.76-3.072-99.84-109.568-115.2-150.528-23.552 34.304-48.128 75.776-68.608 123.392z m-49.664 226.816c0 46.592 6.144 88.064 16.384 123.904 15.872 15.36 137.728 129.024 213.504 128l0.512-116.224h-3.072l-0.512-15.36h3.584l1.024-147.968h-4.096c-86.016 0-162.304-132.608-186.368-179.2-18.432 46.08-32.256 96.768-38.4 151.552 10.24 18.432 87.04 147.968 188.416 172.032L465.92 675.84c-43.008-10.24-87.04-38.912-129.024-84.48-26.112-28.16-46.08-57.344-57.856-75.776 0 9.216-0.512 18.944-0.512 28.672z m502.272-84.48c0.512 1.024 0.512 2.048 0.512 3.072 3.072 33.28 3.072 67.584-2.048 102.912-22.016 156.672-92.16 245.76-147.456 292.864-46.592 39.936-89.6 57.344-108.032 63.488l-0.512 86.016h-15.36l0.512-83.968c-11.776-4.096-66.048-25.088-121.344-76.8-56.32-52.736-123.392-147.968-123.392-303.104 0-154.624 69.12-285.696 126.464-368.128 62.464-89.088 125.952-142.848 126.464-143.36l5.12-4.096 5.12 4.096c0.512 0.512 74.752 58.88 141.824 153.088 35.328 49.152 72.704 113.664 94.72 188.416l-14.848 4.608c-3.584-12.288-7.68-24.576-12.288-36.352-12.288 31.744-38.4 67.584-73.216 99.328C619.52 481.28 570.368 506.88 526.336 514.048l-1.024 147.968c81.408-12.288 158.72-77.824 205.312-137.216 25.088-31.744 34.304-53.248 34.816-61.44-1.536-16.384-4.096-32.256-7.68-47.616l15.36-3.072c3.584 15.872 5.632 31.232 7.68 47.104z" fill="#d81e06" p-id="18615"></path><path d="M513.536 56.32l-1.536 272.384c-42.496-3.584-88.576-105.984-104.96-150.528 43.008-59.904 86.016-102.912 106.496-121.856zM757.76 416.256c3.072 15.36 5.632 31.232 7.68 47.616-0.512 7.68-10.24 29.696-34.816 61.44-46.592 58.88-123.904 124.416-205.312 137.216l1.024-147.968C570.368 506.88 619.52 481.28 662.528 441.344c34.816-31.744 60.928-68.096 73.216-99.328 4.608 11.776 8.704 24.064 12.288 36.352s7.168 25.088 9.728 37.888z" fill="#d81e06" p-id="18616"></path><path d="M512 344.576l-1.024 155.648c-87.04 5.12-169.984-157.184-182.784-182.784 20.48-47.616 45.056-89.6 68.096-123.392 15.872 40.96 61.952 147.456 115.712 150.528z" fill="#d81e06" p-id="18617"></path></svg>