<?xml version="1.0" standalone="no"?><!DOCTYPE svg PUBLIC "-//W3C//DTD SVG 1.1//EN" "http://www.w3.org/Graphics/SVG/1.1/DTD/svg11.dtd"><svg t="1761145879136" class="icon" viewBox="0 0 1024 1024" version="1.1" xmlns="http://www.w3.org/2000/svg" p-id="21255" xmlns:xlink="http://www.w3.org/1999/xlink" width="200" height="200"><path d="M942.592 90.112c-15.872-7.168-33.28-11.264-50.688-11.776-53.248-9.728-122.88 2.56-182.784 30.72-7.168 3.584-15.36 0.512-18.944-6.656-0.512-0.512-0.512-1.024-0.512-2.048-7.68-22.016-60.416-6.144-82.944 0-80.384 22.528-155.136 60.928-220.16 112.64-6.144 4.608-14.848 4.096-19.456-2.048 0 0 0-0.512-0.512-0.512-10.24-14.336-48.128 5.632-76.8 30.72-70.144 61.44-125.952 134.144-159.744 222.72-26.112 65.536-30.208 138.24-11.776 206.336 1.536 7.68 9.216 12.8 16.896 11.264 3.584-0.512 6.656-2.56 8.704-5.12 86.016-99.84 169.472-195.584 274.944-291.84 103.424-94.72 223.744-171.008 311.808-199.68 8.704-2.56 13.312 9.728 5.632 14.336-286.208 165.888-496.64 434.176-688.64 699.392-14.848 20.48-1.024 50.176 23.552 50.176h411.648c4.096-0.512 7.68-4.096 7.168-8.192 0-2.048-1.024-4.096-2.56-5.632l-13.824-11.264c-5.12-4.608-11.264-6.656-18.432-7.168H83.968c-4.096 0-7.68-3.584-7.68-8.192 0-1.536 0.512-3.072 1.536-4.608 16.896-22.016 51.712-67.584 71.168-87.552 32.768-33.792 34.304-30.72 62.464-31.744 54.784-1.024 109.568-6.144 163.328-15.872 114.176-22.016 211.456-76.8 285.696-171.008 13.312-16.896 26.112-41.472 15.36-54.272-5.12-7.168-4.096-16.896 3.072-22.528 0.512-0.512 1.024-1.024 2.048-1.024 2.56-1.536 5.632-3.072 8.192-4.608 87.552-51.2 168.448-109.568 220.16-202.752 10.24-18.944 22.016-50.176 7.168-60.928-7.168-5.12-9.216-15.36-4.096-22.528l1.536-1.536c17.92-16.384 34.304-33.792 49.664-52.736 30.72-37.888 23.04-65.024-20.992-84.48z" fill="#FF8080" p-id="21256"></path></svg>