<?xml version="1.0" encoding="UTF-8" standalone="no"?>
<!-- Created with Inkscape (http://www.inkscape.org/) -->

<svg
   xmlns:dc="http://purl.org/dc/elements/1.1/"
   xmlns:cc="http://creativecommons.org/ns#"
   xmlns:rdf="http://www.w3.org/1999/02/22-rdf-syntax-ns#"
   xmlns:svg="http://www.w3.org/2000/svg"
   xmlns="http://www.w3.org/2000/svg"
   xmlns:sodipodi="http://sodipodi.sourceforge.net/DTD/sodipodi-0.dtd"
   xmlns:inkscape="http://www.inkscape.org/namespaces/inkscape"
   width="129mm"
   height="74.8218mm"
   viewBox="0 0 457.08662 265.11662"
   id="svg2"
   version="1.1"
   inkscape:version="0.91 r13725"
   sodipodi:docname="alphabet_capital_bold.svg">
  <defs
     id="defs4">
    <clipPath
       clipPathUnits="userSpaceOnUse"
       id="clipPath4203">
      <rect
         style="opacity:0.569;fill:#8c2d2d;fill-opacity:1;fill-rule:evenodd;stroke:#ff2e51;stroke-width:1.5;stroke-linejoin:round;stroke-miterlimit:4;stroke-dasharray:none;stroke-dashoffset:0;stroke-opacity:1"
         id="rect4205"
         width="690"
         height="275.71429"
         x="-211.42857"
         y="416.64792" />
    </clipPath>
    <clipPath
       clipPathUnits="userSpaceOnUse"
       id="clipPath4209">
      <rect
         style="opacity:0.569;fill:#8c2d2d;fill-opacity:1;fill-rule:evenodd;stroke:#ff2e51;stroke-width:1.5;stroke-linejoin:round;stroke-miterlimit:4;stroke-dasharray:none;stroke-dashoffset:0;stroke-opacity:1"
         id="rect4211"
         width="426.42856"
         height="252.85715"
         x="-68.639107"
         y="431.76675"
         transform="matrix(0.9998983,-0.01426118,0.01426118,0.9998983,0,0)" />
    </clipPath>
    <clipPath
       clipPathUnits="userSpaceOnUse"
       id="clipPath4241">
      <rect
         style="opacity:0.569;fill:#8c2d2d;fill-opacity:1;fill-rule:evenodd;stroke:#ff2e51;stroke-width:8.46543121;stroke-linejoin:round;stroke-miterlimit:4;stroke-dasharray:none;stroke-dashoffset:0;stroke-opacity:1"
         id="rect4243"
         width="464.46313"
         height="170.17743"
         x="-70.156387"
         y="499.53516"
         transform="matrix(0.9998983,-0.01426118,0.01426118,0.9998983,0,0)" />
    </clipPath>
    <clipPath
       clipPathUnits="userSpaceOnUse"
       id="clipPath4247">
      <rect
         style="opacity:0.569;fill:#8c2d2d;fill-opacity:1;fill-rule:evenodd;stroke:#ff2e51;stroke-width:0.77290475;stroke-linejoin:round;stroke-miterlimit:4;stroke-dasharray:none;stroke-dashoffset:0;stroke-opacity:1"
         id="rect4249"
         width="449.29849"
         height="52.869946"
         x="-75.431229"
         y="444.26035"
         transform="matrix(0.9998983,-0.01426118,0.01426118,0.9998983,0,0)" />
    </clipPath>
    <clipPath
       clipPathUnits="userSpaceOnUse"
       id="clipPath4255">
      <rect
         style="opacity:0.569;fill:#8c2d2d;fill-opacity:1;fill-rule:evenodd;stroke:#ff2e51;stroke-width:1.5;stroke-linejoin:round;stroke-miterlimit:4;stroke-dasharray:none;stroke-dashoffset:0;stroke-opacity:1"
         id="rect4257"
         width="407.85715"
         height="107.14286"
         x="-52.924824"
         y="561.05243"
         transform="matrix(0.9998983,-0.01426118,0.01426118,0.9998983,0,0)" />
    </clipPath>
    <clipPath
       clipPathUnits="userSpaceOnUse"
       id="clipPath4263">
      <rect
         style="opacity:0.569;fill:#8c2d2d;fill-opacity:1;fill-rule:evenodd;stroke:#ff2e51;stroke-width:1.5;stroke-linejoin:round;stroke-miterlimit:4;stroke-dasharray:none;stroke-dashoffset:0;stroke-opacity:1"
         id="rect4265"
         width="425.71429"
         height="49.285713"
         x="-70.06768"
         y="504.62387"
         transform="matrix(0.9998983,-0.01426118,0.01426118,0.9998983,0,0)" />
    </clipPath>
  </defs>
  <sodipodi:namedview
     id="base"
     pagecolor="#ffffff"
     bordercolor="#666666"
     borderopacity="1.0"
     inkscape:pageopacity="0.0"
     inkscape:pageshadow="2"
     inkscape:zoom="1.4253648"
     inkscape:cx="254.11477"
     inkscape:cy="58.236731"
     inkscape:document-units="px"
     inkscape:current-layer="g7623"
     showgrid="false"
     fit-margin-top="1"
     fit-margin-left="1"
     fit-margin-right="1"
     fit-margin-bottom="1"
     inkscape:window-width="1920"
     inkscape:window-height="957"
     inkscape:window-x="0"
     inkscape:window-y="0"
     inkscape:window-maximized="1" />
  <metadata
     id="metadata7">
    <rdf:RDF>
      <cc:Work
         rdf:about="">
        <dc:format>image/svg+xml</dc:format>
        <dc:type
           rdf:resource="http://purl.org/dc/dcmitype/StillImage" />
        <dc:title></dc:title>
      </cc:Work>
    </rdf:RDF>
  </metadata>
  <g
     inkscape:label="レイヤー 1"
     inkscape:groupmode="layer"
     id="layer1"
     transform="translate(-28.730652,129.69474)">
    <g
       id="g7623"
       transform="matrix(1.6673205,0,0,1.6673205,-21.537079,-88.005287)">
      <g
         transform="matrix(1.3737181,0,0,1.3737181,41.983225,-183.02926)"
         id="g5646"
         style="stroke-width:1.30078709;stroke-miterlimit:10;stroke-dasharray:none">
        <g
           transform="matrix(0.68181825,0,0,0.68181825,76.122457,27.82316)"
           id="g4387"
           style="stroke-width:1.90782082;stroke-miterlimit:10;stroke-dasharray:none">
          <path
             inkscape:connector-curvature="0"
             id="path4389"
             style="fill:none;stroke:#000000;stroke-width:1.90782082;stroke-linecap:round;stroke-linejoin:round;stroke-miterlimit:10;stroke-dasharray:none;stroke-opacity:1"
             d="m 103.8029,131.392 c 0,1.4506 0,2.9012 0,4.3518 m 0,0 c 0,1.4506 0,2.9012 0,4.3518 m 0,0 c 0,1.4506 0,2.9011 0,4.3517 m 0,0 c 0,1.4506 0,2.9013 0,4.3519 m 0,0 c 0,1.4505 0,2.9011 0,4.3517" />
        </g>
        <g
           transform="matrix(0.68181825,0,0,0.68181825,76.122457,27.82316)"
           id="g4391"
           style="stroke-width:1.90782082;stroke-miterlimit:10;stroke-dasharray:none">
          <path
             inkscape:connector-curvature="0"
             id="path4393"
             style="fill:none;stroke:#000000;stroke-width:1.90782082;stroke-linecap:round;stroke-linejoin:round;stroke-miterlimit:10;stroke-dasharray:none;stroke-opacity:1"
             d="m 106.9032,131.2302 c 0,1.4312 0,2.8624 0,4.2936 m 0,0 c 0,1.4311 0,2.8623 0,4.2935 m 0,0 c 0,1.4312 0,2.8624 0,4.2936 m 0,0 c 0,1.4311 0,2.8623 0,4.2935 m 0,0 c 0,1.4312 0,2.8624 0,4.2936" />
        </g>
        <g
           transform="matrix(0.68181825,0,0,0.68181825,76.122457,27.82316)"
           id="g4395"
           style="stroke-width:1.90782082;stroke-miterlimit:10;stroke-dasharray:none">
          <path
             inkscape:connector-curvature="0"
             id="path4397"
             style="fill:none;stroke:#000000;stroke-width:1.90782082;stroke-linecap:round;stroke-linejoin:round;stroke-miterlimit:10;stroke-dasharray:none;stroke-opacity:1"
             d="m 104.8952,131.5134 c 0.0269,-0.027 0.1078,-0.045 0.2427,-0.054 m 0,0 c 0.1348,-0.009 0.3371,-0.0224 0.6068,-0.0404 m 0,0 c 0.2697,-0.018 0.6203,-0.027 1.0518,-0.027 m 0,0 c 0.4315,0 0.881,0 1.3484,0 m 0,0 c 0.4675,0 0.9889,0 1.5642,0 m 0,0 c 0.5753,0 1.1237,0 1.6451,0 m 0,0 c 0.5214,0 1.0518,0 1.5912,0 m 0,0 c 0.5393,0 1.0158,0 1.4293,0 m 0,0 c 0.4135,0 0.8001,0 1.1597,0 m 0,0 c 0.3595,0 0.6472,0 0.863,0 m 0,0 c 0.2157,0 0.3865,0 0.5124,0 m 0,0 c 0.1258,0 0.2247,0 0.2966,0 m 0,0 c 0.072,0 0.1259,0.027 0.1618,0.0809 m 0,0 c 0.036,0.054 0.072,0.1888 0.1079,0.4046" />
        </g>
        <g
           transform="matrix(0.68181825,0,0,0.68181825,76.122457,27.82316)"
           id="g4399"
           style="stroke-width:1.90782082;stroke-miterlimit:10;stroke-dasharray:none">
          <path
             inkscape:connector-curvature="0"
             id="path4401"
             style="fill:none;stroke:#000000;stroke-width:1.90782082;stroke-linecap:round;stroke-linejoin:round;stroke-miterlimit:10;stroke-dasharray:none;stroke-opacity:1"
             d="m 105.4211,140.5345 c 0.0539,-0.054 0.1348,-0.0899 0.2427,-0.1079 m 0,0 c 0.1079,-0.018 0.2607,-0.045 0.4585,-0.0809 m 0,0 c 0.1977,-0.036 0.4314,-0.054 0.7011,-0.054 m 0,0 c 0.2697,0 0.5574,0 0.863,0 m 0,0 c 0.3057,0 0.6203,0 0.9439,0 m 0,0 c 0.3237,0 0.6473,0 0.9709,0 m 0,0 c 0.3237,0 0.6203,0 0.89,0 m 0,0 c 0.2697,0 0.5214,0 0.7551,0 m 0,0 c 0.2338,0 0.4315,0 0.5933,0 m 0,0 c 0.1619,0 0.3057,0 0.4315,0 m 0,0 c 0.1259,0 0.2428,0 0.3506,0 m 0,0 c 0.1079,0 0.2068,0 0.2967,0 m 0,0 c 0.0899,0 0.1798,0 0.2697,0 m 0,0 c 0.0899,0 0.1708,0 0.2427,0 m 0,0 c 0.0719,0 0.1438,0 0.2157,0 m 0,0 c 0.072,0 0.1349,0 0.1888,0 m 0,0 c 0.054,0 0.1079,0.027 0.1618,0.081 m 0,0 c 0.054,0.0539 0.1349,0.1887 0.2428,0.4045" />
        </g>
      </g>
      <g
         transform="matrix(1.388362,0,0,1.388362,41.703004,-184.90318)"
         id="g5636"
         style="stroke-width:1.28706694;stroke-miterlimit:10;stroke-dasharray:none">
        <g
           transform="matrix(0.68181825,0,0,0.68181825,76.122457,27.82316)"
           id="g4403"
           style="stroke-width:1.88769794;stroke-miterlimit:10;stroke-dasharray:none">
          <path
             inkscape:connector-curvature="0"
             id="path4405"
             style="fill:none;stroke:#000000;stroke-width:1.88769794;stroke-linecap:round;stroke-linejoin:round;stroke-miterlimit:10;stroke-dasharray:none;stroke-opacity:1"
             d="m 157.9293,133.0911 c 0.1079,-0.054 0.1708,-0.0899 0.1888,-0.108 m 0,0 c 0.018,-0.0179 0.045,-0.0449 0.0809,-0.0809 m 0,0 c 0.036,-0.0359 0.036,-0.0628 0,-0.0809 m 0,0 c -0.0359,-0.0179 -0.0809,-0.0449 -0.1348,-0.0809 m 0,0 c -0.054,-0.0359 -0.1169,-0.0988 -0.1888,-0.1887 m 0,0 c -0.0719,-0.0899 -0.1618,-0.1798 -0.2697,-0.2697 m 0,0 c -0.1079,-0.0899 -0.2427,-0.1798 -0.4045,-0.2697 m 0,0 c -0.1618,-0.0899 -0.3416,-0.1618 -0.5394,-0.2157 m 0,0 c -0.1978,-0.054 -0.4135,-0.1079 -0.6473,-0.1618 m 0,0 c -0.2337,-0.054 -0.4584,-0.0989 -0.6742,-0.1349 m 0,0 c -0.2157,-0.036 -0.4405,-0.0629 -0.6742,-0.0809 m 0,0 c -0.2337,-0.018 -0.4854,-0.027 -0.7551,-0.027 m 0,0 c -0.2697,0 -0.5574,0 -0.863,0 m 0,0 c -0.3057,0 -0.6203,0 -0.9439,0 m 0,0 c -0.3236,0 -0.6653,0.036 -1.0248,0.1079 m 0,0 c -0.3596,0.0719 -0.7282,0.1978 -1.1058,0.3776 m 0,0 c -0.3775,0.1798 -0.7641,0.4135 -1.1596,0.7011 m 0,0 c -0.3956,0.2877 -0.7462,0.6024 -1.0518,0.9439 m 0,0 c -0.3056,0.3417 -0.6113,0.7282 -0.9169,1.1597 m 0,0 c -0.3057,0.4315 -0.5754,0.899 -0.8091,1.4024 m 0,0 c -0.2337,0.5034 -0.4585,1.0428 -0.6742,1.6181 m 0,0 c -0.2158,0.5754 -0.3686,1.1687 -0.4585,1.78 m 0,0 c -0.0899,0.6113 -0.1528,1.2226 -0.1888,1.8339 m 0,0 c -0.036,0.6113 -0.036,1.2405 0,1.8877 m 0,0 c 0.036,0.6473 0.1438,1.2496 0.3236,1.807 m 0,0 c 0.1798,0.5573 0.4405,1.0697 0.7821,1.5372 m 0,0 c 0.3416,0.4674 0.7642,0.845 1.2676,1.1327 m 0,0 c 0.5034,0.2877 1.0158,0.5124 1.5372,0.6742 m 0,0 c 0.5214,0.1618 1.0518,0.2787 1.5911,0.3506 m 0,0 c 0.5394,0.0719 1.0878,0.1169 1.6452,0.1349 m 0,0 c 0.5573,0.0179 1.1057,-0.018 1.6451,-0.1079 m 0,0 c 0.5393,-0.0899 1.0158,-0.2068 1.4293,-0.3507 m 0,0 c 0.4135,-0.1438 0.7551,-0.3146 1.0248,-0.5123 m 0,0 c 0.2697,-0.1978 0.6023,-0.4585 0.9979,-0.7821" />
        </g>
        <g
           transform="matrix(0.68181825,0,0,0.68181825,76.122457,27.82316)"
           id="g4407"
           style="stroke-width:1.88769794;stroke-miterlimit:10;stroke-dasharray:none">
          <path
             inkscape:connector-curvature="0"
             id="path4409"
             style="fill:none;stroke:#000000;stroke-width:1.88769794;stroke-linecap:round;stroke-linejoin:round;stroke-miterlimit:10;stroke-dasharray:none;stroke-opacity:1"
             d="m 148.706,133.0102 c 0,1.5014 0,3.0029 0,4.5045 m 0,0 c 0,1.5015 0,3.003 0,4.5045 m 0,0 c 0,1.5015 0,3.0031 0,4.5046 m 0,0 c 0,0 0,0 0,0 m 0,0 c -0.1853,0.5397 -0.3707,1.0795 -0.556,1.6193" />
        </g>
        <g
           transform="matrix(0.68181825,0,0,0.68181825,76.122457,27.82316)"
           id="g4411"
           style="stroke-width:1.88769794;stroke-miterlimit:10;stroke-dasharray:none">
          <path
             inkscape:connector-curvature="0"
             id="path4413"
             style="fill:none;stroke:#000000;stroke-width:1.88769794;stroke-linecap:round;stroke-linejoin:round;stroke-miterlimit:10;stroke-dasharray:none;stroke-opacity:1"
             d="m 154.5313,144.0944 c 1.1747,0 2.3494,0 3.5241,0 m 0,0 c 1.1747,0 2.3494,0 3.5241,0" />
        </g>
        <g
           transform="matrix(0.68181825,0,0,0.68181825,76.122457,27.82316)"
           id="g4415"
           style="stroke-width:1.88769794;stroke-miterlimit:10;stroke-dasharray:none">
          <path
             inkscape:connector-curvature="0"
             id="path4417"
             style="fill:none;stroke:#000000;stroke-width:1.88769794;stroke-linecap:round;stroke-linejoin:round;stroke-miterlimit:10;stroke-dasharray:none;stroke-opacity:1"
             d="m 158.8193,145.2674 c -0.0539,0.2967 -0.0899,0.6114 -0.1079,0.944 m 0,0 c -0.0179,0.3326 -0.0539,0.8046 -0.1079,1.4159 m 0,0 c -0.0539,0.6113 -0.0899,1.2135 -0.1078,1.8068 m 0,0 c -0.018,0.5934 -0.063,1.1327 -0.1349,1.6182 m 0,0 c -0.0719,0.4854 -0.2157,1.1597 -0.4315,2.0227" />
        </g>
      </g>
      <g
         transform="matrix(1.3563321,0,0,1.3563321,-151.12534,-126.07387)"
         id="g5564">
        <g
           transform="matrix(0.68181825,0,0,0.68181825,76.122457,27.82316)"
           id="g4319">
          <path
             inkscape:connector-curvature="0"
             id="path4321"
             style="fill:none;stroke:#000000;stroke-width:1.93227589;stroke-linecap:round;stroke-linejoin:round;stroke-miterlimit:10;stroke-dasharray:none;stroke-opacity:1"
             d="m 93.75233,71.83414 c -0.34444,1.44553 -0.68889,2.89106 -1.03334,4.33659 m 0,0 c -0.34444,1.44553 -0.68888,2.89107 -1.03334,4.3366 m 0,0 c -0.34444,1.44553 -0.68888,2.89107 -1.03334,4.3366 m 0,0 c -0.34444,1.44554 -0.68888,2.89106 -1.03332,4.3366 m 0,0 c -0.34445,1.44553 -0.6889,2.89106 -1.03334,4.3366" />
        </g>
        <g
           transform="matrix(0.68181825,0,0,0.68181825,76.122457,27.82316)"
           id="g4323"
           style="stroke-width:1.93227589;stroke-miterlimit:10;stroke-dasharray:none">
          <path
             inkscape:connector-curvature="0"
             id="path4325"
             style="fill:none;stroke:#000000;stroke-width:1.93227589;stroke-linecap:round;stroke-linejoin:round;stroke-miterlimit:10;stroke-dasharray:none;stroke-opacity:1"
             d="m 97.43203,71.99409 c -0.31823,1.46008 -0.63646,2.92015 -0.95469,4.38019 m 0,0 c -0.31822,1.46004 -0.63646,2.92008 -0.95468,4.38012 m 0,0 c -0.31823,1.46008 -0.63646,2.92014 -0.95469,4.38018 m 0,0 c -0.31822,1.46005 -0.63645,2.92008 -0.95468,4.38013 m 0,0 c -0.31824,1.46004 -0.63646,2.9201 -0.95469,4.38019" />
        </g>
        <g
           transform="matrix(0.68181825,0,0,0.68181825,76.122457,27.82316)"
           id="g4327"
           style="stroke-width:1.93227589;stroke-miterlimit:10;stroke-dasharray:none">
          <path
             inkscape:connector-curvature="0"
             id="path4329"
             style="fill:none;stroke:#000000;stroke-width:1.93227589;stroke-linecap:round;stroke-linejoin:round;stroke-miterlimit:10;stroke-dasharray:none;stroke-opacity:1"
             d="m 97.75455,72.13419 c 0.52325,1.46183 1.0465,2.92366 1.56975,4.38549 m 0,0 c 0.52323,1.46183 1.0465,2.92367 1.5697,4.3855 m 0,0 c 0.5233,1.46183 1.0465,2.92367 1.5698,4.3855 m 0,0 c 0.5232,1.46183 1.0465,2.92367 1.5697,4.3855 m 0,0 c 0.5233,1.46183 1.0465,2.92367 1.5697,4.3855" />
        </g>
        <g
           transform="matrix(0.68181825,0,0,0.68181825,76.122457,27.82316)"
           id="g4331"
           style="stroke-width:1.93227589;stroke-miterlimit:10;stroke-dasharray:none">
          <path
             inkscape:connector-curvature="0"
             id="path4333"
             style="fill:none;stroke:#000000;stroke-width:1.93227589;stroke-linecap:round;stroke-linejoin:round;stroke-miterlimit:10;stroke-dasharray:none;stroke-opacity:1"
             d="m 91.31253,84.83308 c 0.2933,-0.08001 0.5333,-0.13335 0.71994,-0.16001 m 0,0 c 0.18665,-0.02664 0.46664,-0.06662 0.83994,-0.11996 m 0,0 c 0.37329,-0.05335 0.71105,-0.08001 1.01325,-0.08001 m 0,0 c 0.3022,0 0.61328,0 0.93326,0 m 0,0 c 0.31997,0 0.64883,0 0.98658,0 m 0,0 c 0.33775,0 0.68439,0 1.03991,0 m 0,0 c 0.35553,0 0.71994,-0.0089 1.09324,-0.02669 m 0,0 c 0.3733,-0.01775 0.71994,-0.03552 1.03992,-0.05331 m 0,0 c 0.31998,-0.01776 0.58662,-0.03553 0.79993,-0.05332 m 0,0 c 0.21332,-0.0178 0.3733,-0.02669 0.48,-0.02669 m 0,0 c 0.1066,0 0.1955,0 0.2666,0 m 0,0 c 0.0711,0 0.1333,0 0.1867,0 m 0,0 c 0.0533,0 0.1066,0 0.1599,0 m 0,0 c 0.0534,0 0.1156,0 0.1867,0 m 0,0 c 0.0711,0 0.1955,0 0.3733,0" />
        </g>
      </g>
      <g
         transform="matrix(1.4912333,0,0,1.4912333,-187.49028,-135.0827)"
         id="g5582"
         style="stroke-width:1.19827974;stroke-miterlimit:10;stroke-dasharray:none">
        <g
           transform="matrix(0.68181825,0,0,0.68181825,76.122457,27.82316)"
           id="g4347"
           style="stroke-width:1.75747681;stroke-miterlimit:10;stroke-dasharray:none">
          <path
             inkscape:connector-curvature="0"
             id="path4349"
             style="fill:none;stroke:#000000;stroke-width:1.75747681;stroke-linecap:round;stroke-linejoin:round;stroke-miterlimit:10;stroke-dasharray:none;stroke-opacity:1"
             d="m 202.9434,72.39407 c -0.0533,-0.15998 -0.1422,-0.30218 -0.2666,-0.42661 m 0,0 c -0.1245,-0.12443 -0.32,-0.2933 -0.5867,-0.50661 m 0,0 c -0.2666,-0.21332 -0.631,-0.3822 -1.0932,-0.50663 m 0,0 c -0.4622,-0.12442 -1.0132,-0.21331 -1.6532,-0.26664 m 0,0 c -0.6399,-0.05334 -1.3421,-0.08891 -2.1065,-0.1067 m 0,0 c -0.7644,-0.01776 -1.5643,0.07113 -2.3998,0.26665 m 0,0 c -0.8355,0.19556 -1.6354,0.53332 -2.3998,1.01329 m 0,0 c -0.7644,0.47993 -1.4932,1.15542 -2.1865,2.02647 m 0,0 c -0.6933,0.87105 -1.2532,1.80431 -1.6799,2.7998 m 0,0 c -0.4266,0.99544 -0.7466,2.02646 -0.9599,3.09308 m 0,0 c -0.2133,1.06656 -0.2933,2.10646 -0.24,3.1197 m 0,0 c 0.0534,1.01328 0.2756,1.98209 0.6666,2.90643 m 0,0 c 0.3911,0.92439 0.9422,1.72433 1.6533,2.39982 m 0,0 c 0.711,0.67549 1.5109,1.19991 2.3998,1.57323 m 0,0 c 0.8888,0.37329 1.8043,0.63105 2.7464,0.77327 m 0,0 c 0.9421,0.14218 1.8754,0.12441 2.7998,-0.05332 m 0,0 c 0.9243,-0.17777 1.822,-0.54218 2.6931,-1.09324 m 0,0 c 0.871,-0.5511 1.5998,-1.12884 2.1864,-1.73324 m 0,0 c 0.5867,-0.6044 1.2355,-1.351 1.9466,-2.23981" />
        </g>
        <g
           transform="matrix(0.68181825,0,0,0.68181825,76.621462,27.82316)"
           id="g4351"
           style="stroke-width:1.75747681;stroke-miterlimit:10;stroke-dasharray:none">
          <path
             inkscape:connector-curvature="0"
             id="path4353"
             style="fill:none;stroke:#000000;stroke-width:1.75747681;stroke-linecap:round;stroke-linejoin:round;stroke-miterlimit:10;stroke-dasharray:none;stroke-opacity:1"
             d="m 190.5444,74.23395 c 0,1.5459 0,3.09182 0,4.63772 m 0,0 c 0,1.5459 0,3.09181 0,4.63771 m 0,0 c 0,1.54591 0,3.09184 0,4.63778" />
        </g>
      </g>
      <g
         transform="matrix(1.2983164,0,0,1.2983164,-155.29242,-119.93011)"
         id="g5588"
         style="stroke-width:1.37633228;stroke-miterlimit:10;stroke-dasharray:none">
        <g
           transform="matrix(0.68181825,0,0,0.68181825,76.122457,27.82316)"
           id="g4355"
           style="stroke-width:2.01862049;stroke-miterlimit:10;stroke-dasharray:none">
          <path
             inkscape:connector-curvature="0"
             id="path4357"
             style="fill:none;stroke:#000000;stroke-width:2.01862049;stroke-linecap:round;stroke-linejoin:round;stroke-miterlimit:10;stroke-dasharray:none;stroke-opacity:1"
             d="m 245.551,70.71219 c 0,1.4985 0,2.997 0,4.4955 m 0,0 c 0,1.49853 0,2.99704 0,4.49554 m 0,0 c 0,1.4985 0,2.997 0,4.4955 m 0,0 c 0,1.4985 0,2.99699 0,4.49549 m 0,0 c 0,1.49854 0,2.99706 0,4.49555" />
        </g>
        <g
           transform="matrix(0.68181825,0,0,0.68181825,76.122457,27.82316)"
           id="g4359"
           style="stroke-width:2.01862049;stroke-miterlimit:10;stroke-dasharray:none">
          <path
             inkscape:connector-curvature="0"
             id="path4361"
             style="fill:none;stroke:#000000;stroke-width:2.01862049;stroke-linecap:round;stroke-linejoin:round;stroke-miterlimit:10;stroke-dasharray:none;stroke-opacity:1"
             d="m 249.1918,71.0358 c 0,1.34083 0,2.68167 0,4.0225 m 0,0 c 0,1.34088 0,2.68173 0,4.02256 m 0,0 c 0,1.34083 0,2.68167 0,4.0225 m 0,0 c 0,1.34083 0,2.68167 0,4.0225 m 0,0 c 0,1.34084 0,2.68167 0,4.0225" />
        </g>
        <g
           transform="matrix(0.68181825,0,0,0.68181825,76.122457,27.82316)"
           id="g4363"
           style="stroke-width:2.01862049;stroke-miterlimit:10;stroke-dasharray:none">
          <path
             inkscape:connector-curvature="0"
             id="path4365"
             style="fill:none;stroke:#000000;stroke-width:2.01862049;stroke-linecap:round;stroke-linejoin:round;stroke-miterlimit:10;stroke-dasharray:none;stroke-opacity:1"
             d="m 248.2614,71.07625 c 0.0269,-0.0809 0.0629,-0.15282 0.1078,-0.21574 m 0,0 c 0.045,-0.06293 0.1124,-0.1573 0.2023,-0.28316 m 0,0 c 0.0899,-0.12584 0.2697,-0.2427 0.5394,-0.35057 m 0,0 c 0.2697,-0.10791 0.5843,-0.19782 0.9439,-0.26973 m 0,0 c 0.3596,-0.07191 0.8001,-0.09888 1.3215,-0.08091 m 0,0 c 0.5214,0.01799 1.0158,0.11686 1.4833,0.29665 m 0,0 c 0.4674,0.17982 0.9439,0.44052 1.4293,0.78211 m 0,0 c 0.4854,0.34162 0.9439,0.75514 1.3754,1.24055 m 0,0 c 0.4315,0.48545 0.836,0.99787 1.2136,1.53725 m 0,0 c 0.3776,0.53939 0.6922,1.09673 0.9439,1.67204 m 0,0 c 0.2517,0.57534 0.4495,1.15967 0.5933,1.75299 m 0,0 c 0.1439,0.59332 0.2517,1.17765 0.3237,1.75299 m 0,0 c 0.0719,0.57534 0.1348,1.15068 0.1888,1.72602 m 0,0 c 0.0539,0.57535 0.0898,1.14168 0.1078,1.699 m 0,0 c 0.018,0.55736 -0.009,1.12371 -0.0809,1.69906 m 0,0 c -0.0719,0.57534 -0.2067,1.12372 -0.4045,1.64512 m 0,0 c -0.1978,0.52137 -0.4585,1.02478 -0.7821,1.51023 m 0,0 c -0.3237,0.48545 -0.6922,0.93492 -1.1057,1.34842 m 0,0 c -0.4136,0.41354 -0.854,0.80009 -1.3215,1.15966 m 0,0 c -0.4675,0.35959 -0.9439,0.63828 -1.4294,0.83604 m 0,0 c -0.4854,0.19776 -0.9978,0.34161 -1.5372,0.43154 m 0,0 c -0.5394,0.08988 -1.0788,0.13483 -1.6181,0.13483 m 0,0 c -0.5394,0 -1.0788,0.009 -1.6182,0.02697 m 0,0 c -0.5393,0.01798 -1.2765,0.06292 -2.2114,0.13483" />
        </g>
      </g>
      <g
         transform="matrix(1.509663,0,0,1.509663,-231.59351,-137.27326)"
         id="g5596"
         style="stroke-width:1.18365145;stroke-miterlimit:10;stroke-dasharray:none">
        <g
           transform="matrix(0.68181825,0,0,0.68181825,76.122457,27.82316)"
           id="g4367"
           style="stroke-width:1.73602188;stroke-miterlimit:10;stroke-dasharray:none">
          <path
             inkscape:connector-curvature="0"
             id="path4369"
             style="fill:none;stroke:#000000;stroke-width:1.73602188;stroke-linecap:round;stroke-linejoin:round;stroke-miterlimit:10;stroke-dasharray:none;stroke-opacity:1"
             d="m 309.8716,71.84488 c 0,1.60842 0,3.21683 0,4.82526 m 0,0 c 0,1.60842 0,3.21685 0,4.82531 m 0,0 c 0,1.60841 0,3.21683 0,4.82525 m 0,0 c 0,1.60842 0,3.21684 0,4.82526" />
        </g>
        <g
           transform="matrix(0.68181825,0,0,0.68181825,76.122457,27.82316)"
           id="g4371"
           style="stroke-width:1.73602188;stroke-miterlimit:10;stroke-dasharray:none">
          <path
             inkscape:connector-curvature="0"
             id="path4373"
             style="fill:none;stroke:#000000;stroke-width:1.73602188;stroke-linecap:round;stroke-linejoin:round;stroke-miterlimit:10;stroke-dasharray:none;stroke-opacity:1"
             d="m 312.9581,72.00668 c 0,1.55359 0,3.10718 0,4.66077 m 0,0 c 0,1.55355 0,3.10712 0,4.66071 m 0,0 c 0,1.55358 0,3.10715 0,4.66071 m 0,0 c 0,1.55359 0,3.10718 0,4.66077" />
        </g>
        <g
           transform="matrix(0.68181825,0,0,0.68181825,76.122457,27.82316)"
           id="g4375"
           style="stroke-width:1.73602188;stroke-miterlimit:10;stroke-dasharray:none">
          <path
             inkscape:connector-curvature="0"
             id="path4377"
             style="fill:none;stroke:#000000;stroke-width:1.73602188;stroke-linecap:round;stroke-linejoin:round;stroke-miterlimit:10;stroke-dasharray:none;stroke-opacity:1"
             d="m 311.9752,71.60217 c 0.3236,-0.05393 0.5843,-0.08989 0.7821,-0.10787 m 0,0 c 0.1978,-0.01798 0.5034,-0.04495 0.9169,-0.0809 m 0,0 c 0.4135,-0.03596 0.7731,-0.05393 1.0788,-0.05393 m 0,0 c 0.3056,0 0.6203,0 0.9439,0 m 0,0 c 0.3236,0 0.6472,0 0.9709,0 m 0,0 c 0.3236,0 0.6562,0 0.9978,0 m 0,0 c 0.3416,0 0.6562,0 0.9439,0 m 0,0 c 0.2877,0 0.5394,0 0.7551,0 m 0,0 c 0.2158,0 0.3776,0 0.4855,0 m 0,0 c 0.1078,0 0.2067,0 0.2966,0 m 0,0 c 0.0899,0 0.1708,0 0.2427,0 m 0,0 c 0.072,0 0.1439,0 0.2158,0 m 0,0 c 0.0719,0 0.1078,0.009 0.1078,0.02696 m 0,0 c 0,0.01798 -0.0539,0.06293 -0.1618,0.13484" />
        </g>
        <g
           transform="matrix(0.68181825,0,0,0.68181825,76.122457,27.82316)"
           id="g4379"
           style="stroke-width:1.73602188;stroke-miterlimit:10;stroke-dasharray:none">
          <path
             inkscape:connector-curvature="0"
             id="path4381"
             style="fill:none;stroke:#000000;stroke-width:1.73602188;stroke-linecap:round;stroke-linejoin:round;stroke-miterlimit:10;stroke-dasharray:none;stroke-opacity:1"
             d="m 312.3797,81.63454 c 0.054,-0.05394 0.1349,-0.08988 0.2427,-0.10782 m 0,0 c 0.1079,-0.01798 0.2877,-0.04496 0.5394,-0.08096 m 0,0 c 0.2517,-0.03595 0.5484,-0.05393 0.89,-0.05393 m 0,0 c 0.3415,0 0.7011,0 1.0787,0 m 0,0 c 0.3776,0 0.7372,0 1.0788,0 m 0,0 c 0.3416,0 0.6742,0 0.9978,0 m 0,0 c 0.3237,0 0.6113,0 0.863,0 m 0,0 c 0.2518,0 0.4675,0 0.6473,0 m 0,0 c 0.1798,0 0.3146,0 0.4045,0 m 0,0 c 0.0899,0 0.1618,0 0.2157,0 m 0,0 c 0.054,0 0.09,-0.009 0.108,-0.02697 m 0,0 c 0.0179,-0.01797 0.009,-0.06293 -0.027,-0.13483" />
        </g>
        <g
           transform="matrix(0.68181825,0,0,0.68181825,76.122457,27.82316)"
           id="g4383"
           style="stroke-width:1.73602188;stroke-miterlimit:10;stroke-dasharray:none">
          <path
             inkscape:connector-curvature="0"
             id="path4385"
             style="fill:none;stroke:#000000;stroke-width:1.73602188;stroke-linecap:round;stroke-linejoin:round;stroke-miterlimit:10;stroke-dasharray:none;stroke-opacity:1"
             d="m 311.8134,90.69608 c 0.2157,-0.05394 0.4135,-0.0899 0.5932,-0.10788 m 0,0 c 0.1799,-0.01798 0.4765,-0.04495 0.89,-0.0809 m 0,0 c 0.4136,-0.03596 0.8361,-0.05393 1.2675,-0.05393 m 0,0 c 0.4316,0 0.8721,0 1.3215,0 m 0,0 c 0.4495,0 0.89,0 1.3215,0 m 0,0 c 0.4315,0 0.8361,0 1.2136,0 m 0,0 c 0.3776,0 0.7372,0 1.0788,0 m 0,0 c 0.3416,0 0.6382,0 0.8899,0 m 0,0 c 0.2517,0 0.4675,0 0.6473,0 m 0,0 c 0.1798,0 0.3236,0 0.4315,0 m 0,0 c 0.1079,0 0.1978,0 0.2697,0 m 0,0 c 0.0719,0 0.1258,0.01797 0.1618,0.05393 m 0,0 c 0.036,0.03595 0.0719,0.12585 0.1079,0.26968" />
        </g>
      </g>
      <g
         transform="matrix(1.254011,0,0,1.254011,-136.01989,-116.40673)"
         id="g5574"
         style="stroke-width:1.4249593;stroke-miterlimit:10;stroke-dasharray:none">
        <g
           transform="matrix(0.68181825,0,0,0.68181825,76.122457,27.82316)"
           id="g4335"
           style="stroke-width:2.08994007;stroke-miterlimit:10;stroke-dasharray:none">
          <path
             inkscape:connector-curvature="0"
             id="path4337"
             style="fill:none;stroke:#000000;stroke-width:2.08994007;stroke-linecap:round;stroke-linejoin:round;stroke-miterlimit:10;stroke-dasharray:none;stroke-opacity:1"
             d="m 139.1886,70.07426 c 0,1.58418 0,3.16835 0,4.75252 m 0,0 c 0,1.58418 0,3.16836 0,4.75253 m 0,0 c 0,1.58421 0,3.1684 0,4.75258 m 0,0 c 0,1.58416 0,3.16835 0,4.75252 m 0,0 c 0,1.58417 0,3.16834 0,4.75252" />
        </g>
        <g
           transform="matrix(0.68181825,0,0,0.68181825,76.270807,27.82316)"
           id="g4339"
           style="stroke-width:2.08994007;stroke-miterlimit:10;stroke-dasharray:none">
          <path
             inkscape:connector-curvature="0"
             id="path4341"
             style="fill:none;stroke:#000000;stroke-width:2.08994007;stroke-linecap:round;stroke-linejoin:round;stroke-miterlimit:10;stroke-dasharray:none;stroke-opacity:1"
             d="m 141.9084,70.39423 c 0,1.40137 0,2.80277 0,4.20417 m 0,0 c 0,1.40137 0,2.80275 0,4.20411 m 0,0 c 0,1.40138 0,2.80275 0,4.20411 m 0,0 c 0,1.40138 0,2.80277 0,4.20417 m 0,0 c 0,1.40137 0,2.80274 0,4.20411" />
        </g>
        <g
           transform="matrix(0.68181825,0,0,0.68181825,76.122457,27.82316)"
           id="g4343"
           style="stroke-width:2.08994007;stroke-miterlimit:10;stroke-dasharray:none">
          <path
             inkscape:connector-curvature="0"
             id="path4345"
             style="fill:none;stroke:#000000;stroke-width:2.08994007;stroke-linecap:round;stroke-linejoin:round;stroke-miterlimit:10;stroke-dasharray:none;stroke-opacity:1"
             d="m 141.9484,69.8343 c 0.1333,-0.05335 0.2755,-0.08889 0.4266,-0.10664 m 0,0 c 0.1511,-0.01779 0.3956,-0.04446 0.7333,-0.08001 m 0,0 c 0.3378,-0.03555 0.7111,-0.02667 1.1199,0.02664 m 0,0 c 0.4089,0.05333 0.8355,0.13333 1.2799,0.24002 m 0,0 c 0.4444,0.10663 0.8799,0.23996 1.3066,0.39998 m 0,0 c 0.4266,0.15997 0.8088,0.35549 1.1465,0.58656 m 0,0 c 0.3378,0.23111 0.6133,0.49776 0.8266,0.79996 m 0,0 c 0.2133,0.3022 0.3644,0.64884 0.4533,1.03992 m 0,0 c 0.0889,0.39108 0.1334,0.79105 0.1334,1.19988 m 0,0 c 0,0.40888 -0.0623,0.79996 -0.1867,1.17325 m 0,0 c -0.1244,0.37329 -0.3466,0.7377 -0.6666,1.09324 m 0,0 c -0.32,0.35553 -0.7022,0.65773 -1.1466,0.90659 m 0,0 c -0.4444,0.24887 -0.8799,0.46218 -1.3065,0.63995 m 0,0 c -0.4267,0.17776 -0.7733,0.3111 -1.04,0.39998 m 0,0 c -0.2666,0.08888 -0.4799,0.15999 -0.6399,0.21333 m 0,0 c -0.16,0.0533 -0.2489,0.09774 -0.2666,0.13332 m 0,0 c -0.0178,0.03555 0.0533,0.05333 0.2133,0.05333 m 0,0 c 0.1599,0 0.4177,0.0089 0.7732,0.02663 m 0,0 c 0.3556,0.01779 0.7733,0.08001 1.2533,0.18665 m 0,0 c 0.4799,0.10667 0.9332,0.25777 1.3599,0.45329 m 0,0 c 0.4266,0.19556 0.8354,0.45331 1.2265,0.77327 m 0,0 c 0.3911,0.31999 0.7111,0.64886 0.9599,0.9866 m 0,0 c 0.2489,0.33775 0.4622,0.71993 0.64,1.14656 m 0,0 c 0.1777,0.42663 0.3022,0.84439 0.3733,1.25326 m 0,0 c 0.0711,0.40884 0.1244,0.82659 0.16,1.25326 m 0,0 c 0.0355,0.42663 0.0622,0.83548 0.08,1.22656 m 0,0 c 0.0178,0.39105 0,0.78211 -0.0534,1.1732 m 0,0 c -0.0533,0.39108 -0.1511,0.77328 -0.2933,1.14661 m 0,0 c -0.1422,0.37328 -0.3199,0.71104 -0.5332,1.01324 m 0,0 c -0.2134,0.3022 -0.4622,0.56883 -0.7467,0.7999 m 0,0 c -0.2844,0.2311 -0.5955,0.42664 -0.9332,0.58662 m 0,0 c -0.3378,0.16002 -0.7288,0.30224 -1.1733,0.42667 m 0,0 c -0.4444,0.12443 -0.9065,0.23997 -1.3865,0.3466 m 0,0 c -0.48,0.10668 -0.9688,0.20446 -1.4666,0.29334 m 0,0 c -0.4977,0.08888 -0.9777,0.15998 -1.4399,0.21328 m 0,0 c -0.4621,0.05334 -0.871,0.10668 -1.2265,0.16001 m 0,0 c -0.3555,0.05334 -0.7822,0.1511 -1.2799,0.29329" />
        </g>
      </g>
      <g
         style="stroke-width:1.4249593;stroke-miterlimit:10;stroke-dasharray:none"
         id="g6737"
         transform="matrix(1.254011,0,0,1.254011,-136.01989,-116.40673)" />
      <g
         transform="matrix(1.4282437,0,0,1.4282437,-54.42483,-202.20676)"
         id="g5672"
         style="stroke-width:1.2592597;stroke-miterlimit:10;stroke-dasharray:none">
        <g
           transform="matrix(0.68181825,0,0,0.68181825,76.122457,27.82316)"
           id="g4487"
           style="stroke-width:1.84691405;stroke-miterlimit:10;stroke-dasharray:none">
          <path
             inkscape:connector-curvature="0"
             id="path4489"
             style="fill:none;stroke:#000000;stroke-width:1.84691405;stroke-linecap:round;stroke-linejoin:round;stroke-miterlimit:10;stroke-dasharray:none;stroke-opacity:1"
             d="m 192.5448,190.5419 c 0,1.3411 0,2.6823 0,4.0235 m 0,0 c 0,1.3411 0,2.6823 0,4.0234 m 0,0 c 0,1.3412 0,2.6823 0,4.0235 m 0,0 c 0,1.3412 0,2.6824 0,4.0235 m 0,0 c 0,1.3412 0,2.6824 0,4.0235" />
        </g>
        <g
           transform="matrix(0.68181825,0,0,0.68181825,76.122457,27.82316)"
           id="g4491"
           style="stroke-width:1.84691405;stroke-miterlimit:10;stroke-dasharray:none">
          <path
             inkscape:connector-curvature="0"
             id="path4493"
             style="fill:none;stroke:#000000;stroke-width:1.84691405;stroke-linecap:round;stroke-linejoin:round;stroke-miterlimit:10;stroke-dasharray:none;stroke-opacity:1"
             d="m 195.1911,191.4054 c 0,1.583 0,3.166 0,4.7491 m 0,0 c 0,1.583 0,3.1661 0,4.7491 m 0,0 c 0,1.5831 0,3.1661 0,4.7492 m 0,0 c 0,1.5831 0,3.1661 0,4.7492" />
        </g>
        <g
           transform="matrix(0.68181825,0,0,0.68181825,76.122457,27.82316)"
           id="g4495"
           style="stroke-width:1.84691405;stroke-miterlimit:10;stroke-dasharray:none">
          <path
             inkscape:connector-curvature="0"
             id="path4497"
             style="fill:none;stroke:#000000;stroke-width:1.84691405;stroke-linecap:round;stroke-linejoin:round;stroke-miterlimit:10;stroke-dasharray:none;stroke-opacity:1"
             d="m 195.339,190.3499 c 0.6076,1.1729 1.2152,2.3457 1.8229,3.5185 m 0,0 c 0.6076,1.1728 1.2153,2.3456 1.8229,3.5184 m 0,0 c 0.6076,1.1728 1.2153,2.3456 1.8229,3.5184" />
        </g>
        <g
           transform="matrix(0.68181825,0,0,0.68181825,76.122457,27.82316)"
           id="g4499"
           style="stroke-width:1.84691405;stroke-miterlimit:10;stroke-dasharray:none">
          <path
             inkscape:connector-curvature="0"
             id="path4501"
             style="fill:none;stroke:#000000;stroke-width:1.84691405;stroke-linecap:round;stroke-linejoin:round;stroke-miterlimit:10;stroke-dasharray:none;stroke-opacity:1"
             d="m 209.6344,189.6784 c 0,1.3977 0,2.7953 0,4.193 m 0,0 c 0,1.3976 0,2.7953 0,4.1929 m 0,0 c 0,1.3977 0,2.7954 0,4.193 m 0,0 c 0,1.3977 0,2.7953 0,4.193 m 0,0 c 0,1.3977 0,2.7954 0,4.193" />
        </g>
        <g
           transform="matrix(0.68181825,0,0,0.68181825,76.122457,27.82316)"
           id="g4503"
           style="stroke-width:1.84691405;stroke-miterlimit:10;stroke-dasharray:none">
          <path
             inkscape:connector-curvature="0"
             id="path4505"
             style="fill:none;stroke:#000000;stroke-width:1.84691405;stroke-linecap:round;stroke-linejoin:round;stroke-miterlimit:10;stroke-dasharray:none;stroke-opacity:1"
             d="m 209.7543,189.4865 c -0.0479,0 -0.0959,0.0106 -0.1439,0.032 m 0,0 c -0.048,0.0213 -0.1039,0.048 -0.1679,0.0799 m 0,0 c -0.0639,0.032 -0.1332,0.08 -0.2078,0.1439 m 0,0 c -0.0747,0.064 -0.1759,0.1546 -0.3039,0.2719 m 0,0 c -0.1279,0.1173 -0.3198,0.3091 -0.5756,0.5756 m 0,0 c -0.2559,0.2665 -0.5597,0.597 -0.9115,0.9914 m 0,0 c -0.3518,0.3944 -0.7409,0.8422 -1.1673,1.3432 m 0,0 c -0.4264,0.5011 -0.8528,1.0181 -1.2792,1.5511 m 0,0 c -0.4264,0.533 -0.8368,1.0554 -1.2313,1.5671 m 0,0 c -0.3944,0.5117 -0.7462,0.9861 -1.0553,1.4231 m 0,0 c -0.3092,0.4371 -0.565,0.7996 -0.7676,1.0874 m 0,0 c -0.2025,0.2878 -0.3518,0.5223 -0.4477,0.7035 m 0,0 c -0.0959,0.1813 -0.1652,0.3785 -0.2079,0.5917" />
        </g>
      </g>
      <g
         transform="matrix(1.3809295,0,0,1.3809295,-48.475134,-194.03655)"
         id="g5684"
         style="stroke-width:1.30240512;stroke-miterlimit:10;stroke-dasharray:none">
        <g
           transform="matrix(0.68181825,0,0,0.68181825,76.122457,27.82316)"
           id="g4507"
           style="stroke-width:1.91019404;stroke-miterlimit:10;stroke-dasharray:none">
          <path
             inkscape:connector-curvature="0"
             id="path4509"
             style="fill:none;stroke:#000000;stroke-width:1.91019404;stroke-linecap:round;stroke-linejoin:round;stroke-miterlimit:10;stroke-dasharray:none;stroke-opacity:1"
             d="m 243.1431,189.4167 c 0,1.4142 0,2.8285 0,4.2427 m 0,0 c 0,1.4143 0,2.8286 0,4.2428 m 0,0 c 0,1.4143 0,2.8285 0,4.2428 m 0,0 c 0,1.4142 0,2.8284 0,4.2427 m 0,0 c 0,1.4143 0,2.8285 0,4.2428" />
        </g>
        <g
           transform="matrix(0.68181825,0,0,0.68181825,76.122457,27.82316)"
           id="g4511"
           style="stroke-width:1.91019404;stroke-miterlimit:10;stroke-dasharray:none">
          <path
             inkscape:connector-curvature="0"
             id="path4513"
             style="fill:none;stroke:#000000;stroke-width:1.91019404;stroke-linecap:round;stroke-linejoin:round;stroke-miterlimit:10;stroke-dasharray:none;stroke-opacity:1"
             d="m 246.1667,189.0833 c 0,1.4049 0,2.8097 0,4.2145 m 0,0 c 0,1.4049 0,2.8098 0,4.2146 m 0,0 c 0,1.4048 0,2.8097 0,4.2145 m 0,0 c 0,1.4049 0,2.8097 0,4.2145 m 0,0 c 0,1.4049 0,2.8097 0,4.2146" />
        </g>
        <g
           transform="matrix(0.68181825,0,0,0.68181825,76.122457,27.82316)"
           id="g4515"
           style="stroke-width:1.91019404;stroke-miterlimit:10;stroke-dasharray:none">
          <path
             inkscape:connector-curvature="0"
             id="path4517"
             style="fill:none;stroke:#000000;stroke-width:1.91019404;stroke-linecap:round;stroke-linejoin:round;stroke-miterlimit:10;stroke-dasharray:none;stroke-opacity:1"
             d="m 247.1875,188.7083 c -0.0417,-0.0277 -0.0695,-0.0416 -0.0833,-0.0416 m 0,0 c -0.0139,0 -0.0162,0.0463 -0.007,0.1389 m 0,0 c 0.009,0.0926 0.0833,0.3287 0.2222,0.7083 m 0,0 c 0.1389,0.3796 0.3426,0.9167 0.6111,1.6111 m 0,0 c 0.2686,0.6944 0.6158,1.5278 1.0417,2.5 m 0,0 c 0.4259,0.9722 0.8612,1.9491 1.3056,2.9306 m 0,0 c 0.4444,0.9814 0.8842,1.9351 1.3194,2.8611 m 0,0 c 0.4352,0.9259 0.8195,1.7546 1.1528,2.4861 m 0,0 c 0.3333,0.7314 0.6481,1.412 0.9445,2.0417 m 0,0 c 0.2962,0.6296 0.5509,1.1713 0.7639,1.6249 m 0,0 c 0.2129,0.4537 0.3981,0.8473 0.5555,1.1806 m 0,0 c 0.1574,0.3334 0.287,0.5926 0.3889,0.7778 m 0,0 c 0.1018,0.1852 0.1898,0.3333 0.2639,0.4444 m 0,0 c 0.074,0.1111 0.1435,0.2037 0.2083,0.2778 m 0,0 c 0.0648,0.0741 0.162,0.1852 0.2916,0.3333" />
        </g>
        <g
           transform="matrix(0.68181825,0,0,0.68181825,76.122457,27.82316)"
           id="g4519"
           style="stroke-width:1.91019404;stroke-miterlimit:10;stroke-dasharray:none">
          <path
             inkscape:connector-curvature="0"
             id="path4521"
             style="fill:none;stroke:#000000;stroke-width:1.91019404;stroke-linecap:round;stroke-linejoin:round;stroke-miterlimit:10;stroke-dasharray:none;stroke-opacity:1"
             d="m 257.5417,189.25 c 0,1.6571 0,3.3142 0,4.9713 m 0,0 c 0,1.6571 0,3.3142 0,4.9713 m 0,0 c 0,1.6571 0,3.3142 0,4.9713 m 0,0 c 0,1.6571 0,3.3142 0,4.9714" />
        </g>
      </g>
      <g
         transform="matrix(1.4231865,0,0,1.4231865,-266.56841,-144.40283)"
         id="g5626"
         style="stroke-width:1.26373434;stroke-miterlimit:10;stroke-dasharray:none">
        <g
           transform="matrix(0.68181825,0,0,0.68181825,76.122457,27.82316)"
           id="g4419"
           style="stroke-width:1.85347688;stroke-miterlimit:10;stroke-dasharray:none">
          <path
             inkscape:connector-curvature="0"
             id="path4421"
             style="fill:none;stroke:#000000;stroke-width:1.85347688;stroke-linecap:round;stroke-linejoin:round;stroke-miterlimit:10;stroke-dasharray:none;stroke-opacity:1"
             d="m 199.3699,130.7448 c 0,1.3649 0,2.7299 0,4.0948 m 0,0 c 0,1.365 0,2.7299 0,4.0949 m 0,0 c 0,1.365 0,2.7299 0,4.0948 m 0,0 c 0,1.365 0,2.7299 0,4.0949 m 0,0 c 0,1.3649 0,2.7299 0,4.0948" />
        </g>
        <g
           transform="matrix(0.68181825,0,0,0.68181825,76.122457,27.82316)"
           id="g4423"
           style="stroke-width:1.85347688;stroke-miterlimit:10;stroke-dasharray:none">
          <path
             inkscape:connector-curvature="0"
             id="path4425"
             style="fill:none;stroke:#000000;stroke-width:1.85347688;stroke-linecap:round;stroke-linejoin:round;stroke-miterlimit:10;stroke-dasharray:none;stroke-opacity:1"
             d="m 202.2103,131.392 c 0,1.6047 0,3.2093 0,4.814 m 0,0 c 0,1.6046 0,3.2093 0,4.8139 m 0,0 c 0,1.6046 0,3.2093 0,4.8139 m 0,0 c 0,1.6047 0,3.2093 0,4.814" />
        </g>
        <g
           transform="matrix(0.68181825,0,0,0.68181825,76.122457,27.82316)"
           id="g4427"
           style="stroke-width:1.85347688;stroke-miterlimit:10;stroke-dasharray:none">
          <path
             inkscape:connector-curvature="0"
             id="path4429"
             style="fill:none;stroke:#000000;stroke-width:1.85347688;stroke-linecap:round;stroke-linejoin:round;stroke-miterlimit:10;stroke-dasharray:none;stroke-opacity:1"
             d="m 200.567,139.8872 c 0.1618,-0.054 0.3416,-0.0899 0.5394,-0.1079 m 0,0 c 0.1978,-0.018 0.5034,-0.0449 0.9169,-0.0809 m 0,0 c 0.4136,-0.0359 0.8541,-0.0539 1.3215,-0.0539 m 0,0 c 0.4675,0 0.9259,0 1.3754,0 m 0,0 c 0.4495,0 0.881,0 1.2945,0 m 0,0 c 0.4136,0 0.7911,0 1.1327,0 m 0,0 c 0.3416,0 0.6563,0 0.9439,0 m 0,0 c 0.2877,0 0.5304,0.009 0.7282,0.0269 m 0,0 c 0.1978,0.018 0.3596,0.045 0.4854,0.0809 m 0,0 c 0.1259,0.036 0.2248,0.072 0.2967,0.1079 m 0,0 c 0.0719,0.036 0.1348,0.0629 0.1888,0.0809 m 0,0 c 0.0539,0.018 0.1258,0.045 0.2157,0.081 m 0,0 c 0.0899,0.0359 0.2607,0.1258 0.5124,0.2696" />
        </g>
        <g
           transform="matrix(0.68181825,0,0,0.68181825,76.122457,27.82316)"
           id="g4431"
           style="stroke-width:1.85347688;stroke-miterlimit:10;stroke-dasharray:none">
          <path
             inkscape:connector-curvature="0"
             id="path4433"
             style="fill:none;stroke:#000000;stroke-width:1.85347688;stroke-linecap:round;stroke-linejoin:round;stroke-miterlimit:10;stroke-dasharray:none;stroke-opacity:1"
             d="m 213.1491,131.5538 c 0,1.3622 0,2.7244 0,4.0865 m 0,0 c 0,1.3622 0,2.7243 0,4.0865 m 0,0 c 0,1.3621 0,2.7243 0,4.0864 m 0,0 c 0,1.3622 0,2.7243 0,4.0865 m 0,0 c 0,1.3621 0,2.7243 0,4.0865" />
        </g>
      </g>
      <g
         transform="matrix(1.6091724,0,0,1.6091724,-332.68213,-166.22719)"
         id="g5608"
         style="stroke-width:1.11767375;stroke-miterlimit:10;stroke-dasharray:none">
        <g
           transform="matrix(0.68181825,0,0,0.68181825,76.122457,27.82316)"
           id="g4451"
           style="stroke-width:1.63925457;stroke-miterlimit:10;stroke-dasharray:none">
          <path
             inkscape:connector-curvature="0"
             id="path4453"
             style="fill:none;stroke:#000000;stroke-width:1.63925457;stroke-linecap:round;stroke-linejoin:round;stroke-miterlimit:10;stroke-dasharray:none;stroke-opacity:1"
             d="m 299.8392,130.9066 c 1.4831,0 2.9662,0 4.4493,0 m 0,0 c 1.4831,0 2.9662,0 4.4493,0 m 0,0 c 1.4831,0 2.9662,0 4.4493,0" />
        </g>
        <g
           transform="matrix(0.68181825,0,0,0.68181825,76.122457,27.82316)"
           id="g4455"
           style="stroke-width:1.63925457;stroke-miterlimit:10;stroke-dasharray:none">
          <path
             inkscape:connector-curvature="0"
             id="path4457"
             style="fill:none;stroke:#000000;stroke-width:1.63925457;stroke-linecap:round;stroke-linejoin:round;stroke-miterlimit:10;stroke-dasharray:none;stroke-opacity:1"
             d="m 308.213,131.7157 c 0.0809,0 0.1349,0.0719 0.1619,0.2157 m 0,0 c 0.0269,0.1438 0.0674,0.3506 0.1213,0.6203 m 0,0 c 0.0539,0.2697 0.0809,0.6293 0.0809,1.0787 m 0,0 c 0,0.4495 0,0.935 0,1.4564 m 0,0 c 0,0.5214 0,1.0697 0,1.645 m 0,0 c 0,0.5754 0,1.1687 0,1.78 m 0,0 c 0,0.6113 0,1.2226 0,1.8339 m 0,0 c 0,0.6113 0,1.2226 0,1.8339 m 0,0 c 0,0.6112 0,1.1955 0,1.7529 m 0,0 c 0,0.5574 -0.009,1.0698 -0.0269,1.5373 m 0,0 c -0.018,0.4674 -0.036,0.8989 -0.054,1.2945 m 0,0 c -0.018,0.3955 -0.0539,0.7461 -0.1079,1.0517 m 0,0 c -0.0539,0.3057 -0.1168,0.5664 -0.1887,0.7821 m 0,0 c -0.072,0.2158 -0.1799,0.3866 -0.3237,0.5124 m 0,0 c -0.1438,0.1259 -0.3146,0.2157 -0.5124,0.2697 m 0,0 c -0.1978,0.0539 -0.4495,0.0899 -0.7551,0.1079 m 0,0 c -0.3057,0.0179 -0.6653,0.009 -1.0788,-0.027 m 0,0 c -0.4135,-0.036 -0.9169,-0.1438 -1.5102,-0.3236 m 0,0 c -0.5933,-0.1798 -1.1956,-0.4315 -1.8069,-0.7552 m 0,0 c -0.6113,-0.3236 -1.2046,-0.6921 -1.7799,-1.1057 m 0,0 c -0.5754,-0.4135 -1.3125,-1.0158 -2.2115,-1.8068" />
        </g>
        <g
           transform="matrix(0.68181825,0,0,0.68181825,76.122457,27.82316)"
           id="g4459"
           style="stroke-width:1.63925457;stroke-miterlimit:10;stroke-dasharray:none">
          <path
             inkscape:connector-curvature="0"
             id="path4461"
             style="fill:none;stroke:#000000;stroke-width:1.63925457;stroke-linecap:round;stroke-linejoin:round;stroke-miterlimit:10;stroke-dasharray:none;stroke-opacity:1"
             d="m 305.9167,131.0833 c 0,1.2619 0,2.5238 0,3.7857 m 0,0 c 0,1.2619 0,2.5238 0,3.7857 m 0,0 c 0,1.2619 0,2.5238 0,3.7857 m 0,0 c 0,1.2619 0,2.5238 0,3.7857" />
        </g>
      </g>
      <g
         transform="matrix(1.3747897,0,0,1.3747897,-42.177074,-193.3467)"
         id="g5656"
         style="stroke-width:1.30822158;stroke-miterlimit:10;stroke-dasharray:none">
        <g
           transform="matrix(0.68181825,0,0,0.68181825,76.361667,27.82316)"
           id="g4463"
           style="stroke-width:1.91872489;stroke-miterlimit:10;stroke-dasharray:none">
          <path
             inkscape:connector-curvature="0"
             id="path4465"
             style="fill:none;stroke:#000000;stroke-width:1.91872489;stroke-linecap:round;stroke-linejoin:round;stroke-miterlimit:10;stroke-dasharray:none;stroke-opacity:1"
             d="m 104.6284,189.0652 c 0,1.4638 0,2.9275 0,4.3913 m 0,0 c 0,1.4638 0,2.9275 0,4.3913 m 0,0 c 0,1.4638 0,2.9275 0,4.3913 m 0,0 c 0,1.4638 0,2.9276 0,4.3913 m 0,0 c 0,1.4638 0,2.9276 0,4.3914" />
        </g>
        <g
           transform="matrix(0.68181825,0,0,0.68181825,76.074615,27.82316)"
           id="g4467"
           style="stroke-width:1.91872489;stroke-miterlimit:10;stroke-dasharray:none">
          <path
             inkscape:connector-curvature="0"
             id="path4469"
             style="fill:none;stroke:#000000;stroke-width:1.91872489;stroke-linecap:round;stroke-linejoin:round;stroke-miterlimit:10;stroke-dasharray:none;stroke-opacity:1"
             d="m 107.9297,188.9648 c 0,1.4399 0,2.8799 0,4.3198 m 0,0 c 0,1.4399 0,2.8798 0,4.3197 m 0,0 c 0,1.4399 0,2.8798 0,4.3197 m 0,0 c 0,1.44 0,2.8799 0,4.3198 m 0,0 c 0,1.4399 0,2.8798 0,4.3198" />
        </g>
        <g
           transform="matrix(0.68181825,0,0,0.68181825,76.122457,27.82316)"
           id="g4471"
           style="stroke-width:1.91872489;stroke-miterlimit:10;stroke-dasharray:none">
          <path
             inkscape:connector-curvature="0"
             id="path4473"
             style="fill:none;stroke:#000000;stroke-width:1.91872489;stroke-linecap:round;stroke-linejoin:round;stroke-miterlimit:10;stroke-dasharray:none;stroke-opacity:1"
             d="m 117.4131,189.3663 c -0.9363,1.2371 -1.8725,2.4743 -2.8088,3.7114 m 0,0 c -0.9363,1.2372 -1.8726,2.4743 -2.8089,3.7115 m 0,0 c -0.9362,1.2371 -1.8725,2.4743 -2.8088,3.7114" />
        </g>
        <path
           sodipodi:nodetypes="ccccc"
           d="m 152.43404,162.95835 c 0.50903,0.93702 1.01806,1.87404 1.52709,2.81113 m 0,0 c 0.50897,0.93709 1.018,1.87411 1.93141,3.2573 0.9134,1.3832 1.27289,1.84227 1.52924,2.3142"
           style="fill:none;stroke:#000000;stroke-width:1.30929112;stroke-linecap:round;stroke-linejoin:round;stroke-miterlimit:10;stroke-dasharray:none;stroke-opacity:1"
           id="path4477"
           inkscape:connector-curvature="0" />
      </g>
      <g
         transform="matrix(1.2391138,0,0,1.2391138,-19.613871,-172.06864)"
         id="g5666"
         style="stroke-width:1.45146441;stroke-miterlimit:10;stroke-dasharray:none">
        <g
           transform="matrix(0.68181825,0,0,0.68181825,76.122457,27.82316)"
           id="g4479"
           style="stroke-width:2.12881422;stroke-miterlimit:10;stroke-dasharray:none">
          <path
             inkscape:connector-curvature="0"
             id="path4481"
             style="fill:none;stroke:#000000;stroke-width:2.12881422;stroke-linecap:round;stroke-linejoin:round;stroke-miterlimit:10;stroke-dasharray:none;stroke-opacity:1"
             d="m 151.5355,191.6387 c 0,1.8143 0,3.6286 0,5.443 m 0,0 c 0,1.8143 0,3.6286 0,5.4429 m 0,0 c 0,1.8143 0,3.6286 0,5.4429 m 0,0 c 0,1.8143 0,3.6286 0,5.4429" />
        </g>
        <g
           transform="matrix(0.68181825,0,0,0.68181825,76.122457,27.82316)"
           id="g4483"
           style="stroke-width:2.12881422;stroke-miterlimit:10;stroke-dasharray:none">
          <path
             inkscape:connector-curvature="0"
             id="path4485"
             style="fill:none;stroke:#000000;stroke-width:2.12881422;stroke-linecap:round;stroke-linejoin:round;stroke-miterlimit:10;stroke-dasharray:none;stroke-opacity:1"
             d="m 154.521,188.9376 c 0,1.6313 0,3.2626 0,4.8939 m 0,0 c 0,1.6313 0,3.2626 0,4.8939 m 0,0 c 0,1.6313 0,3.2626 0,4.8939 m 0,0 c 0,1.6313 0,3.2626 0,4.8939 m 0,0 c 0,1.6314 0,3.2627 0,4.894 m 0,0 c 0,0 0,0 0,0 m 0,0 c 1.7857,0 3.5715,0 5.3572,0 m 0,0 c 1.7857,0 3.5715,0 5.3572,0" />
        </g>
      </g>
      <g
         transform="matrix(1.5495741,0,0,1.5495741,-305.63962,-159.45903)"
         id="g5616"
         style="stroke-width:1.16066062;stroke-miterlimit:10;stroke-dasharray:none">
        <g
           transform="matrix(0.68181825,0,0,0.68181825,76.122457,27.82316)"
           id="g4435"
           style="stroke-width:1.70230198;stroke-miterlimit:10;stroke-dasharray:none">
          <path
             inkscape:connector-curvature="0"
             id="path4437"
             style="fill:none;stroke:#000000;stroke-width:1.70230198;stroke-linecap:round;stroke-linejoin:round;stroke-miterlimit:10;stroke-dasharray:none;stroke-opacity:1"
             d="m 254.0176,132.2011 c 0,1.4928 0,2.9856 0,4.4784 m 0,0 c 0,1.4927 0,2.9855 0,4.4783 m 0,0 c 0,1.4928 0,2.9856 0,4.4784 m 0,0 c 0,1.4928 0,2.9856 0,4.4784" />
        </g>
        <g
           transform="matrix(0.68181825,0,0,0.68181825,75.61311,27.82316)"
           id="g4439"
           style="stroke-width:1.70230198;stroke-miterlimit:10;stroke-dasharray:none">
          <path
             inkscape:connector-curvature="0"
             id="path4441"
             style="fill:none;stroke:#000000;stroke-width:1.70230198;stroke-linecap:round;stroke-linejoin:round;stroke-miterlimit:10;stroke-dasharray:none;stroke-opacity:1"
             d="m 257.4859,132.0393 c 0,1.3858 0,2.7716 0,4.1574 m 0,0 c 0,1.3859 0,2.7717 0,4.1575 m 0,0 c 0,1.3859 0,2.7717 0,4.1575 m 0,0 c 0,1.3858 0,2.7717 0,4.1575" />
        </g>
        <g
           transform="matrix(0.68181825,0,0,0.68181825,76.122457,27.82316)"
           id="g4443"
           style="stroke-width:1.70230198;stroke-miterlimit:10;stroke-dasharray:none">
          <path
             inkscape:connector-curvature="0"
             id="path4445"
             style="fill:none;stroke:#000000;stroke-width:1.70230198;stroke-linecap:round;stroke-linejoin:round;stroke-miterlimit:10;stroke-dasharray:none;stroke-opacity:1"
             d="m 251.3358,131.5943 c 0.2427,-0.0809 0.4675,-0.1349 0.6742,-0.1618 m 0,0 c 0.2068,-0.027 0.5349,-0.0764 0.9844,-0.1484 m 0,0 c 0.4495,-0.0719 0.899,-0.1168 1.3484,-0.1348 m 0,0 c 0.4495,-0.018 0.917,-0.036 1.4024,-0.0539 m 0,0 c 0.4854,-0.018 0.9529,-0.027 1.4024,-0.027 m 0,0 c 0.4495,0 0.872,0 1.2675,0 m 0,0 c 0.3956,0 0.7282,0 0.9979,0 m 0,0 c 0.2696,0 0.4854,0 0.6472,0 m 0,0 c 0.1618,0 0.2787,0 0.3506,0 m 0,0 c 0.0719,0 0.1528,0.018 0.2427,0.0539 m 0,0 c 0.0899,0.036 0.2607,0.1259 0.5125,0.2697" />
        </g>
        <g
           transform="matrix(0.68181825,0,0,0.68181825,76.122457,27.82316)"
           id="g4447"
           style="stroke-width:1.70230198;stroke-miterlimit:10;stroke-dasharray:none">
          <path
             inkscape:connector-curvature="0"
             id="path4449"
             style="fill:none;stroke:#000000;stroke-width:1.70230198;stroke-linecap:round;stroke-linejoin:round;stroke-miterlimit:10;stroke-dasharray:none;stroke-opacity:1"
             d="m 250.3649,150.4455 c 0.2427,-0.027 0.4675,-0.0449 0.6743,-0.054 m 0,0 c 0.2067,-0.009 0.5258,-0.0225 0.9574,-0.0404 m 0,0 c 0.4314,-0.018 0.8989,-0.027 1.4023,-0.027 m 0,0 c 0.5034,0 1.0248,0 1.5642,0 m 0,0 c 0.5394,0 1.0878,0 1.6451,0 m 0,0 c 0.5574,0 1.0788,0 1.5642,0 m 0,0 c 0.4854,0 0.9349,0 1.3485,0 m 0,0 c 0.4135,0 0.7731,0 1.0787,0 m 0,0 c 0.3056,0 0.5574,0 0.7551,0 m 0,0 c 0.1978,0 0.3686,0 0.5124,0 m 0,0 c 0.1439,0 0.2697,0 0.3776,0 m 0,0 c 0.1079,0 0.1978,0 0.2697,0 m 0,0 c 0.0719,0 0.1348,0 0.1888,0 m 0,0 c 0.0539,0 0.1078,0 0.1618,0 m 0,0 c 0.0539,0 0.1348,0 0.2427,0" />
        </g>
      </g>
      <g
         transform="matrix(1.4755225,0,0,1.4755225,-128.803,-225.91765)"
         id="g5714"
         style="stroke-width:1.20973241;stroke-miterlimit:10;stroke-dasharray:none">
        <g
           transform="matrix(0.68181825,0,0,0.68181825,76.122457,27.82316)"
           id="g4579"
           style="stroke-width:1.77427399;stroke-miterlimit:10;stroke-dasharray:none">
          <path
             inkscape:connector-curvature="0"
             id="path4581"
             style="fill:none;stroke:#000000;stroke-width:1.77427399;stroke-linecap:round;stroke-linejoin:round;stroke-miterlimit:10;stroke-dasharray:none;stroke-opacity:1"
             d="m 257.3618,249.5249 c 1.2838,0 2.5677,0 3.8516,0 m 0,0 c 1.2839,0 2.5677,0 3.8516,0 m 0,0 c 1.2839,0 2.5677,0 3.8516,0 m 0,0 c 1.2839,0 2.5677,0 3.8516,0" />
        </g>
        <g
           transform="matrix(0.68181825,0,0,0.68181825,76.122457,27.82316)"
           id="g4583"
           style="stroke-width:1.77427399;stroke-miterlimit:10;stroke-dasharray:none">
          <path
             inkscape:connector-curvature="0"
             id="path4585"
             style="fill:none;stroke:#000000;stroke-width:1.77427399;stroke-linecap:round;stroke-linejoin:round;stroke-miterlimit:10;stroke-dasharray:none;stroke-opacity:1"
             d="m 263.0232,250.4939 c 0,1.608 0,3.2159 0,4.8239 m 0,0 c 0,1.608 0,3.216 0,4.824 m 0,0 c 0,1.608 0,3.216 0,4.8239 m 0,0 c 0,1.608 0,3.216 0,4.824" />
        </g>
        <g
           transform="matrix(0.68181825,0,0,0.68181825,76.122457,27.82316)"
           id="g4587"
           style="stroke-width:1.77427399;stroke-miterlimit:10;stroke-dasharray:none">
          <path
             inkscape:connector-curvature="0"
             id="path4589"
             style="fill:none;stroke:#000000;stroke-width:1.77427399;stroke-linecap:round;stroke-linejoin:round;stroke-miterlimit:10;stroke-dasharray:none;stroke-opacity:1"
             d="m 265.8075,250.9115 c 0,0.1547 0,0.3042 0,0.4486 m 0,0 c 0,0.1444 0,0.3816 0,0.7115 m 0,0 c 0,0.33 0,0.6755 0,1.0364 m 0,0 c 0,0.3609 0,0.7425 0,1.1446 m 0,0 c 0,0.4022 0,0.8044 0,1.2066 m 0,0 c 0,0.4022 0,0.7941 0,1.1756 m 0,0 c 0,0.3816 0,0.7734 0,1.1756 m 0,0 c 0,0.4021 0,0.8043 0,1.2065 m 0,0 c 0,0.4022 0,0.794 0,1.1756 m 0,0 c 0,0.3815 0,0.7528 0,1.1137 m 0,0 c 0,0.361 0,0.7013 0,1.021 m 0,0 c 0,0.3197 0,0.6444 0,0.9744 m 0,0 c 0,0.33 0,0.6343 0,0.9127 m 0,0 c 0,0.2784 0,0.5517 0,0.8198 m 0,0 c 0,0.2681 0,0.5156 0,0.7425 m 0,0 c 0,0.2268 0,0.4382 0,0.6342 m 0,0 c 0,0.1959 0,0.3712 0,0.5259 m 0,0 c 0,0.1547 0,0.2939 0,0.4176 m 0,0 c 0,0.1238 0,0.232 0,0.3248 m 0,0 c 0,0.0928 0,0.1754 0,0.2476 m 0,0 c 0,0.0722 0,0.1392 0,0.201 m 0,0 c 0,0.0619 0,0.1289 0,0.2011 m 0,0 c 0,0.0722 0,0.1547 0,0.2475 m 0,0 c 0,0.0929 0,0.2527 0,0.4796" />
        </g>
      </g>
      <g
         transform="matrix(1.535341,0,0,1.535341,-165.71254,-239.39544)"
         id="g5708"
         style="stroke-width:1.1625998;stroke-miterlimit:10;stroke-dasharray:none">
        <g
           transform="matrix(0.68181825,0,0,0.68181825,76.122457,27.82316)"
           id="g4591"
           style="stroke-width:1.70514631;stroke-miterlimit:10;stroke-dasharray:none">
          <path
             inkscape:connector-curvature="0"
             id="path4593"
             style="fill:none;stroke:#000000;stroke-width:1.70514631;stroke-linecap:round;stroke-linejoin:round;stroke-miterlimit:10;stroke-dasharray:none;stroke-opacity:1"
             d="m 317.3529,251.2996 c -0.018,0.1801 -0.0301,0.3482 -0.0361,0.5043 m 0,0 c -0.006,0.1561 -0.0269,0.3962 -0.063,0.7204 m 0,0 c -0.036,0.3242 -0.066,0.6604 -0.09,1.0086 m 0,0 c -0.0241,0.3482 -0.0541,0.7385 -0.0901,1.1707 m 0,0 c -0.036,0.4322 -0.084,0.9005 -0.1441,1.4048 m 0,0 c -0.06,0.5043 -0.1201,1.0086 -0.1801,1.5129 m 0,0 c -0.06,0.5043 -0.1201,0.9966 -0.1801,1.4768 m 0,0 c -0.06,0.4804 -0.096,0.9727 -0.108,1.4769 m 0,0 c -0.012,0.5043 -0.0241,1.0206 -0.036,1.5489 m 0,0 c -0.0121,0.5283 -1e-4,1.0686 0.036,1.621 m 0,0 c 0.036,0.5523 0.09,1.0686 0.162,1.5489 m 0,0 c 0.0721,0.4802 0.1861,0.9305 0.3422,1.3507 m 0,0 c 0.1561,0.4202 0.3483,0.7925 0.5764,1.1167 m 0,0 c 0.2281,0.3242 0.4922,0.6123 0.7924,0.8645 m 0,0 c 0.3002,0.2521 0.6304,0.4803 0.9906,0.6844 m 0,0 c 0.3602,0.2041 0.7565,0.3841 1.1887,0.5402 m 0,0 c 0.4323,0.1561 0.9065,0.2882 1.4228,0.3963 m 0,0 c 0.5163,0.108 1.0506,0.1861 1.6029,0.2341 m 0,0 c 0.5524,0.048 1.1047,0.066 1.657,0.054 m 0,0 c 0.5523,-0.012 1.1046,-0.09 1.6569,-0.2341 m 0,0 c 0.5524,-0.1441 1.0927,-0.3422 1.621,-0.5944 m 0,0 c 0.5283,-0.2521 1.0086,-0.5402 1.4408,-0.8644 m 0,0 c 0.4323,-0.3243 0.8105,-0.6484 1.1347,-0.9726 m 0,0 c 0.3241,-0.3242 0.6063,-0.6544 0.8465,-0.9905 m 0,0 c 0.2401,-0.3362 0.4683,-0.7025 0.6844,-1.0987 m 0,0 c 0.2161,-0.3962 0.4142,-0.8224 0.5943,-1.2787 m 0,0 c 0.1801,-0.4563 0.3302,-0.9186 0.4503,-1.3869 m 0,0 c 0.1201,-0.4682 0.2281,-0.9425 0.3241,-1.4227 m 0,0 c 0.0961,-0.4804 0.1742,-0.9246 0.2342,-1.3328 m 0,0 c 0.06,-0.4083 0.1141,-0.8105 0.1621,-1.2067 m 0,0 c 0.048,-0.3962 0.078,-0.7744 0.09,-1.1347 m 0,0 c 0.0121,-0.3602 0.0181,-0.7324 0.0181,-1.1166 m 0,0 c 0,-0.3843 0,-0.7565 0,-1.1167 m 0,0 c 0,-0.3602 0,-0.6844 0,-0.9726 m 0,0 c 0,-0.2881 0,-0.5343 0,-0.7384 m 0,0 c 0,-0.2041 0,-0.3722 0,-0.5043 m 0,0 c 0,-0.132 0,-0.2461 0,-0.3422 m 0,0 c 0,-0.096 -0.0241,-0.1861 -0.0721,-0.2701 m 0,0 c -0.048,-0.0841 -0.1681,-0.2222 -0.3602,-0.4143" />
        </g>
        <g
           transform="matrix(0.68181825,0,0,0.68181825,76.122457,27.82316)"
           id="g4595"
           style="stroke-width:1.70514631;stroke-miterlimit:10;stroke-dasharray:none">
          <path
             inkscape:connector-curvature="0"
             id="path4597"
             style="fill:none;stroke:#000000;stroke-width:1.70514631;stroke-linecap:round;stroke-linejoin:round;stroke-miterlimit:10;stroke-dasharray:none;stroke-opacity:1"
             d="m 320.2468,251.1375 c 0,1.4758 0,2.9516 0,4.4273 m 0,0 c 0,1.4758 0,2.9516 0,4.4274 m 0,0 c 0,1.4757 0,2.9515 0,4.4272 m 0,0 c 0,1.4758 0,2.9516 0,4.4274" />
        </g>
      </g>
      <g
         transform="matrix(1.3465145,0,0,1.3465145,-336.43387,-144.35953)"
         id="g5694"
         style="stroke-width:1.32563543;stroke-miterlimit:10;stroke-dasharray:none">
        <g
           transform="matrix(0.68181825,0,0,0.68181825,76.122457,27.82316)"
           id="g4523"
           style="stroke-width:1.94426513;stroke-miterlimit:10;stroke-dasharray:none">
          <path
             inkscape:connector-curvature="0"
             id="path4525"
             style="fill:none;stroke:#000000;stroke-width:1.94426513;stroke-linecap:round;stroke-linejoin:round;stroke-miterlimit:10;stroke-dasharray:none;stroke-opacity:1"
             d="m 305.0912,188.977 c 1.3222,0.5752 2.3918,1.5238 3.209,2.8456 m 0,0 c 0.8172,1.3219 1.2883,2.8655 1.4134,4.6311 m 0,0 c 0.125,1.7655 -0.1103,3.5507 -0.7061,5.3555 m 0,0 c -0.5958,1.8048 -1.4837,3.4224 -2.6638,4.853 m 0,0 c -1.1801,1.4306 -2.5172,2.5103 -4.0112,3.2389 m 0,0 c -1.4941,0.7287 -2.974,1.0229 -4.4398,0.8827 m 0,0 c -1.4657,-0.1402 -2.7495,-0.6988 -3.8512,-1.6758 m 0,0 c -1.1017,-0.9769 -1.8951,-2.2603 -2.3803,-3.8502 m 0,0 c -0.4853,-1.5899 -0.6067,-3.3042 -0.3643,-5.1428 m 0,0 c 0.2425,-1.8386 0.8209,-3.5909 1.7354,-5.257 m 0,0 c 0.9145,-1.6661 2.0603,-3.0551 3.4374,-4.1671 m 0,0 c 1.3771,-1.1119 2.8278,-1.8194 4.352,-2.1224 m 0,0 c 1.5242,-0.303 2.9474,-0.1668 4.2695,0.4085" />
        </g>
        <g
           transform="matrix(0.68181825,0,0,0.68181825,76.122457,27.82316)"
           id="g4527"
           style="stroke-width:1.94426513;stroke-miterlimit:10;stroke-dasharray:none">
          <path
             inkscape:connector-curvature="0"
             id="path4529"
             style="fill:none;stroke:#000000;stroke-width:1.94426513;stroke-linecap:round;stroke-linejoin:round;stroke-miterlimit:10;stroke-dasharray:none;stroke-opacity:1"
             d="m 295.9968,191.7366 c 0,1.4226 0,2.8453 0,4.2679 m 0,0 c 0,1.4227 0,2.8453 0,4.2679 m 0,0 c 0,1.4227 0,2.8453 0,4.2679 m 0,0 c 0,1.4227 0,2.8453 0,4.268" />
        </g>
      </g>
      <g
         transform="matrix(1.3440054,0,0,1.3440054,-68.675941,-200.67027)"
         id="g5738"
         style="stroke-width:1.32811034;stroke-miterlimit:10;stroke-dasharray:none">
        <g
           transform="matrix(0.68181825,0,0,0.68181825,76.122457,27.82316)"
           id="g4543"
           style="stroke-width:1.94789493;stroke-miterlimit:10;stroke-dasharray:none">
          <path
             inkscape:connector-curvature="0"
             id="path4545"
             style="fill:none;stroke:#000000;stroke-width:1.94789493;stroke-linecap:round;stroke-linejoin:round;stroke-miterlimit:10;stroke-dasharray:none;stroke-opacity:1"
             d="m 103.8673,251.4243 c 1.2208,0.7832 2.1402,1.8823 2.7582,3.2973 m 0,0 c 0.6179,1.415 0.8638,2.9839 0.7375,4.7066 m 0,0 c -0.1263,1.7227 -0.6104,3.4019 -1.4521,5.0376 m 0,0 c -0.8417,1.6357 -1.9447,3.0406 -3.309,4.2146 m 0,0 c -1.3642,1.174 -2.83353,1.9827 -4.40782,2.426 m 0,0 c -1.5743,0.4434 -3.07328,0.4706 -4.49695,0.0818 m 0,0 c -1.42367,-0.3889 -2.60896,-1.1493 -3.55584,-2.2813 m 0,0 c -0.94689,-1.132 -1.54694,-2.5059 -1.80014,-4.1218 m 0,0 c -0.25319,-1.6158 -0.13054,-3.2884 0.36797,-5.0179 m 0,0 c 0.4985,-1.7294 1.31576,-3.3176 2.45176,-4.7646 m 0,0 c 1.136,-1.4469 2.46064,-2.5868 3.9739,-3.4196 m 0,0 c 1.51326,-0.8329 3.04182,-1.2634 4.58566,-1.2915 m 0,0 c 1.54386,-0.028 2.92616,0.3495 4.14686,1.1328" />
        </g>
        <g
           transform="matrix(0.68181825,0,0,0.68181825,76.122457,27.82316)"
           id="g4547"
           style="stroke-width:1.94789493;stroke-miterlimit:10;stroke-dasharray:none">
          <path
             inkscape:connector-curvature="0"
             id="path4549"
             style="fill:none;stroke:#000000;stroke-width:1.94789493;stroke-linecap:round;stroke-linejoin:round;stroke-miterlimit:10;stroke-dasharray:none;stroke-opacity:1"
             d="m 92.81558,254.1667 c 0,1.6507 0,3.3014 0,4.9521 m 0,0 c 0,1.6508 0,3.3015 0,4.9522 m 0,0 c 0,1.6507 0,3.3014 0,4.9521" />
        </g>
        <g
           transform="matrix(0.68181825,0,0,0.68181825,76.122457,27.82316)"
           id="g4551"
           style="stroke-width:1.94789493;stroke-miterlimit:10;stroke-dasharray:none">
          <path
             inkscape:connector-curvature="0"
             id="path4553"
             style="fill:none;stroke:#000000;stroke-width:1.94789493;stroke-linecap:round;stroke-linejoin:round;stroke-miterlimit:10;stroke-dasharray:none;stroke-opacity:1"
             d="m 93.97917,269.6042 c 0.09722,-0.0417 0.19444,-0.0972 0.29166,-0.1667 m 0,0 c 0.09722,-0.0695 0.26157,-0.1829 0.49305,-0.3403 m 0,0 c 0.23148,-0.1574 0.48148,-0.3194 0.75001,-0.4861 m 0,0 c 0.26851,-0.1667 0.5787,-0.3379 0.93055,-0.5138 m 0,0 c 0.35186,-0.176 0.72686,-0.3241 1.125,-0.4445 m 0,0 c 0.39815,-0.1204 0.8287,-0.2223 1.29166,-0.3056 m 0,0 c 0.46297,-0.0833 0.90278,-0.1342 1.3194,-0.1527 m 0,0 c 0.4167,-0.0186 0.8195,-0.0278 1.2084,-0.0278 m 0,0 c 0.3889,0 0.7454,0.0277 1.0694,0.0833 m 0,0 c 0.3241,0.0556 0.6297,0.1389 0.9167,0.25 m 0,0 c 0.287,0.1111 0.537,0.2546 0.75,0.4306 m 0,0 c 0.213,0.1759 0.4074,0.3749 0.5833,0.5972 m 0,0 c 0.176,0.2222 0.338,0.463 0.4861,0.7222 m 0,0 c 0.1482,0.2593 0.2917,0.5185 0.4306,0.7778 m 0,0 c 0.1389,0.2592 0.2639,0.5 0.375,0.7222 m 0,0 c 0.1111,0.2222 0.2315,0.4167 0.3611,0.5833 m 0,0 c 0.1296,0.1667 0.2824,0.3288 0.4583,0.4862 m 0,0 c 0.176,0.1574 0.3751,0.2916 0.5973,0.4028 m 0,0 c 0.2222,0.1111 0.4629,0.2083 0.7222,0.2916 m 0,0 c 0.2593,0.0833 0.5324,0.1388 0.8194,0.1666 m 0,0 c 0.2871,0.0278 0.5926,0.0463 0.9167,0.0556 m 0,0 c 0.3241,0.009 0.6157,-0.005 0.875,-0.0416 m 0,0 c 0.2593,-0.0371 0.5648,-0.1297 0.9167,-0.2778" />
        </g>
      </g>
      <g
         transform="matrix(1.3982396,0,0,1.3982396,-81.87418,-210.49409)"
         id="g5728"
         style="stroke-width:1.27659619;stroke-miterlimit:10;stroke-dasharray:none">
        <g
           transform="matrix(0.68181825,0,0,0.68181825,76.122457,27.82316)"
           id="g4555"
           style="stroke-width:1.87234092;stroke-miterlimit:10;stroke-dasharray:none">
          <path
             inkscape:connector-curvature="0"
             id="path4557"
             style="fill:none;stroke:#000000;stroke-width:1.87234092;stroke-linecap:round;stroke-linejoin:round;stroke-miterlimit:10;stroke-dasharray:none;stroke-opacity:1"
             d="m 142.5,250.6667 c 0,1.3443 0,2.6886 0,4.0329 m 0,0 c 0,1.3443 0,2.6886 0,4.0329 m 0,0 c 0,1.3443 0,2.6886 0,4.0329 m 0,0 c 0,1.3444 0,2.6887 0,4.033 m 0,0 c 0,1.3443 0,2.6886 0,4.0329" />
        </g>
        <g
           transform="matrix(0.68181825,0,0,0.68181825,76.122457,27.82316)"
           id="g4559"
           style="stroke-width:1.87234092;stroke-miterlimit:10;stroke-dasharray:none">
          <path
             inkscape:connector-curvature="0"
             id="path4561"
             style="fill:none;stroke:#000000;stroke-width:1.87234092;stroke-linecap:round;stroke-linejoin:round;stroke-miterlimit:10;stroke-dasharray:none;stroke-opacity:1"
             d="m 151.1667,259.5833 c 0.5422,1.2315 1.0844,2.463 1.6267,3.6944 m 0,0 c 0.5422,1.2316 1.0845,2.4631 1.6267,3.6945 m 0,0 c 0.5422,1.2315 1.0845,2.463 1.6267,3.6945" />
        </g>
        <g
           transform="matrix(0.68181825,0,0,0.68181825,76.122457,27.82316)"
           id="g4563"
           style="stroke-width:1.87234092;stroke-miterlimit:10;stroke-dasharray:none">
          <path
             inkscape:connector-curvature="0"
             id="path4565"
             style="fill:none;stroke:#000000;stroke-width:1.87234092;stroke-linecap:round;stroke-linejoin:round;stroke-miterlimit:10;stroke-dasharray:none;stroke-opacity:1"
             d="m 145.6122,250.0833 c 0,1.3782 0,2.7564 0,4.1347 m 0,0 c 0,1.3781 0,2.7564 0,4.1346 m 0,0 c 0,1.3782 0,2.7564 0,4.1346 m 0,0 c 0,1.3782 0,2.7564 0,4.1346 m 0,0 c 0,1.3782 0,2.7564 0,4.1346" />
        </g>
        <g
           transform="matrix(0.68181825,0,0,0.68181825,76.122457,27.82316)"
           id="g4567"
           style="stroke-width:1.87234092;stroke-miterlimit:10;stroke-dasharray:none">
          <path
             inkscape:connector-curvature="0"
             id="path4569"
             style="fill:none;stroke:#000000;stroke-width:1.87234092;stroke-linecap:round;stroke-linejoin:round;stroke-miterlimit:10;stroke-dasharray:none;stroke-opacity:1"
             d="m 143.6667,249.3541 c 0,0.014 0.005,0.0232 0.0139,0.0279 m 0,0 c 0.009,0.005 0.0277,0.0115 0.0555,0.0208 m 0,0 c 0.0278,0.009 0.0602,0.0139 0.0972,0.0139 m 0,0 c 0.0371,0 0.1019,0 0.1945,0 m 0,0 c 0.0926,0 0.2176,0 0.375,0 m 0,0 c 0.1574,0 0.3518,0 0.5833,0 m 0,0 c 0.2315,0 0.4769,0 0.7361,0 m 0,0 c 0.2593,0 0.537,0.009 0.8333,0.0277 m 0,0 c 0.2964,0.0186 0.5973,0.051 0.9028,0.0973 m 0,0 c 0.3056,0.0463 0.6204,0.1018 0.9445,0.1666 m 0,0 c 0.324,0.0648 0.6342,0.1389 0.9305,0.2222 m 0,0 c 0.2963,0.0834 0.588,0.1713 0.875,0.2639 m 0,0 c 0.2871,0.0926 0.5556,0.1945 0.8056,0.3056 m 0,0 c 0.25,0.1111 0.4769,0.2222 0.6806,0.3333 m 0,0 c 0.2036,0.1111 0.3888,0.2176 0.5555,0.3195 m 0,0 c 0.1667,0.1018 0.3194,0.2037 0.4583,0.3055 m 0,0 c 0.1389,0.1019 0.2778,0.2084 0.4167,0.3195 m 0,0 c 0.1389,0.1111 0.2731,0.2361 0.4028,0.375 m 0,0 c 0.1296,0.1389 0.2453,0.2916 0.3472,0.4583 m 0,0 c 0.1019,0.1667 0.1852,0.338 0.25,0.5139 m 0,0 c 0.0648,0.1759 0.1157,0.3519 0.1528,0.5278 m 0,0 c 0.037,0.1759 0.0648,0.3472 0.0833,0.5139 m 0,0 c 0.0185,0.1667 0.0324,0.338 0.0417,0.5139 m 0,0 c 0.009,0.1759 0.0139,0.3518 0.0139,0.5278 m 0,0 c 0,0.1759 -0.0139,0.3425 -0.0417,0.5 m 0,0 c -0.0278,0.1574 -0.0694,0.3055 -0.125,0.4444 m 0,0 c -0.0556,0.1389 -0.125,0.2685 -0.2083,0.3889 m 0,0 c -0.0834,0.1204 -0.1713,0.2408 -0.2639,0.3611 m 0,0 c -0.0926,0.1204 -0.1945,0.2269 -0.3056,0.3194 m 0,0 c -0.1111,0.0926 -0.2407,0.1806 -0.3889,0.2639 m 0,0 c -0.1481,0.0834 -0.3148,0.1621 -0.5,0.2362 m 0,0 c -0.1852,0.0741 -0.4027,0.1527 -0.6527,0.236 m 0,0 c -0.25,0.0834 -0.5093,0.1575 -0.7778,0.2223 m 0,0 c -0.2686,0.0648 -0.5602,0.1157 -0.875,0.1527 m 0,0 c -0.3148,0.0371 -0.6389,0.0695 -0.9722,0.0973 m 0,0 c -0.3334,0.0277 -0.676,0.0601 -1.0278,0.0972 m 0,0 c -0.3519,0.037 -0.7037,0.0787 -1.0556,0.125 m 0,0 c -0.3518,0.0463 -0.6713,0.088 -0.9583,0.125 m 0,0 c -0.287,0.037 -0.5602,0.0648 -0.8195,0.0833 m 0,0 c -0.2592,0.0185 -0.4814,0.0324 -0.6666,0.0417 m 0,0 c -0.1852,0.009 -0.3472,0.0139 -0.4861,0.0139 m 0,0 c -0.1389,0 -0.2454,0 -0.3195,0 m 0,0 c -0.0741,0 -0.1481,-0.005 -0.2222,-0.0139 m 0,0 c -0.0741,-0.009 -0.213,-0.0324 -0.4167,-0.0695" />
        </g>
      </g>
      <g
         transform="matrix(1.3825017,0,0,1.3825017,-89.661117,-207.39076)"
         id="g5722"
         style="stroke-width:1.29112852;stroke-miterlimit:10;stroke-dasharray:none">
        <g
           transform="matrix(0.68181825,0,0,0.68181825,76.122457,27.82316)"
           id="g4571"
           style="stroke-width:1.89365494;stroke-miterlimit:10;stroke-dasharray:none">
          <path
             inkscape:connector-curvature="0"
             id="path4573"
             style="fill:none;stroke:#000000;stroke-width:1.89365494;stroke-linecap:round;stroke-linejoin:round;stroke-miterlimit:10;stroke-dasharray:none;stroke-opacity:1"
             d="m 211.9792,251.9792 c -0.0139,-0.0139 -0.0232,-0.0278 -0.0278,-0.0417 m 0,0 c -0.005,-0.0139 -0.0162,-0.0347 -0.0347,-0.0625 m 0,0 c -0.0186,-0.0278 -0.0278,-0.0602 -0.0278,-0.0972 m 0,0 c 0,-0.037 -0.005,-0.0741 -0.0139,-0.1111 m 0,0 c -0.009,-0.0371 -0.0139,-0.0741 -0.0139,-0.1111 m 0,0 c 0,-0.0371 -0.0185,-0.0695 -0.0556,-0.0973 m 0,0 c -0.037,-0.0277 -0.0879,-0.0694 -0.1527,-0.125 m 0,0 c -0.0648,-0.0555 -0.1528,-0.1296 -0.2639,-0.2222 m 0,0 c -0.1111,-0.0926 -0.25,-0.1991 -0.4167,-0.3195 m 0,0 c -0.1667,-0.1203 -0.3426,-0.2407 -0.5278,-0.3611 m 0,0 c -0.1851,-0.1203 -0.3842,-0.2314 -0.5972,-0.3332 m 0,0 c -0.2129,-0.1019 -0.4213,-0.1991 -0.625,-0.2917 m 0,0 c -0.2037,-0.0926 -0.4259,-0.1713 -0.6666,-0.2362 m 0,0 c -0.2408,-0.0647 -0.4908,-0.1157 -0.75,-0.1528 m 0,0 c -0.2593,-0.037 -0.5325,-0.0601 -0.8195,-0.0694 m 0,0 c -0.287,-0.009 -0.5648,-0.009 -0.8333,0 m 0,0 c -0.2685,0.009 -0.5463,0.0417 -0.8334,0.0972 m 0,0 c -0.287,0.0556 -0.5786,0.1528 -0.8749,0.2917 m 0,0 c -0.2964,0.1389 -0.588,0.3056 -0.875,0.5 m 0,0 c -0.2871,0.1945 -0.5602,0.4213 -0.8195,0.6806 m 0,0 c -0.2592,0.2592 -0.5,0.5278 -0.7222,0.8055 m 0,0 c -0.2222,0.2778 -0.4167,0.5741 -0.5833,0.8889 m 0,0 c -0.1667,0.3148 -0.2917,0.6343 -0.375,0.9583 m 0,0 c -0.0834,0.3241 -0.1297,0.6482 -0.1389,0.9723 m 0,0 c -0.009,0.324 -0.0139,0.6435 -0.0139,0.9583 m 0,0 c 0,0.3148 0.037,0.6204 0.1111,0.9167 m 0,0 c 0.0741,0.2963 0.2037,0.5833 0.3889,0.8611 m 0,0 c 0.1852,0.2778 0.4352,0.5463 0.75,0.8055 m 0,0 c 0.3148,0.2593 0.6666,0.5 1.0555,0.7222 m 0,0 c 0.3889,0.2223 0.8009,0.4353 1.2361,0.639 m 0,0 c 0.4352,0.2037 0.8843,0.3935 1.3472,0.5694 m 0,0 c 0.463,0.1759 0.9028,0.3473 1.3195,0.5139 m 0,0 c 0.4167,0.1667 0.8102,0.3195 1.1805,0.4583 m 0,0 c 0.3704,0.1389 0.7084,0.2963 1.0139,0.4723 m 0,0 c 0.3056,0.1759 0.5834,0.3703 0.8334,0.5833 m 0,0 c 0.25,0.213 0.4583,0.4491 0.625,0.7083 m 0,0 c 0.1666,0.2592 0.2963,0.5232 0.3889,0.7917 m 0,0 c 0.0925,0.2685 0.1666,0.537 0.2222,0.8055 m 0,0 c 0.0555,0.2686 0.0972,0.5463 0.125,0.8334 m 0,0 c 0.0278,0.287 0.0416,0.5926 0.0416,0.9166 m 0,0 c 0,0.3241 -0.0277,0.6435 -0.0833,0.9583 m 0,0 c -0.0556,0.3148 -0.1435,0.6204 -0.2639,0.9167 m 0,0 c -0.1203,0.2963 -0.2731,0.5648 -0.4583,0.8055 m 0,0 c -0.1852,0.2408 -0.4028,0.4769 -0.6528,0.7084 m 0,0 c -0.25,0.2315 -0.5231,0.4398 -0.8194,0.625 m 0,0 c -0.2963,0.1852 -0.625,0.3472 -0.9861,0.4861 m 0,0 c -0.3612,0.1389 -0.7454,0.2454 -1.1528,0.3195 m 0,0 c -0.4074,0.0741 -0.8611,0.1296 -1.3611,0.1666 m 0,0 c -0.5,0.0371 -1.0278,0.0371 -1.5834,0 m 0,0 c -0.5555,-0.037 -1.1296,-0.1342 -1.7222,-0.2916 m 0,0 c -0.5926,-0.1575 -1.1481,-0.3519 -1.6667,-0.5834 m 0,0 c -0.5185,-0.2314 -1.0092,-0.4907 -1.4722,-0.7777 m 0,0 c -0.4629,-0.2871 -1.1018,-0.7084 -1.9166,-1.2639" />
        </g>
        <g
           transform="matrix(0.68181825,0,0,0.68181825,76.122457,27.82316)"
           id="g4575"
           style="stroke-width:1.89365494;stroke-miterlimit:10;stroke-dasharray:none">
          <path
             inkscape:connector-curvature="0"
             id="path4577"
             style="fill:none;stroke:#000000;stroke-width:1.89365494;stroke-linecap:round;stroke-linejoin:round;stroke-miterlimit:10;stroke-dasharray:none;stroke-opacity:1"
             d="m 205.8716,251.3333 c -1e-4,1.6094 -1e-4,3.2188 0,4.8282 m 0,0 c -1e-4,1.6094 -1e-4,3.2188 0,4.8281 m 0,0 c -1e-4,1.6094 -1e-4,3.2188 0,4.8282 m 0,0 c -1e-4,1.6093 -1e-4,3.2187 0,4.8281" />
        </g>
      </g>
      <g
         transform="matrix(1.2340545,0,0,1.2340545,-315.0227,-126.66763)"
         id="g5700"
         style="stroke-width:1.44644129;stroke-miterlimit:10;stroke-dasharray:none">
        <g
           transform="matrix(0.68181825,0,0,0.68181825,76.122457,27.82316)"
           id="g4531"
           style="stroke-width:2.12144709;stroke-miterlimit:10;stroke-dasharray:none">
          <path
             inkscape:connector-curvature="0"
             id="path4533"
             style="fill:none;stroke:#000000;stroke-width:2.12144709;stroke-linecap:round;stroke-linejoin:round;stroke-miterlimit:10;stroke-dasharray:none;stroke-opacity:1"
             d="m 354.8083,188.8466 c 0,1.5965 0,3.193 0,4.7894 m 0,0 c 0,1.5965 0,3.1929 0,4.7894 m 0,0 c 0,1.5964 0,3.1929 0,4.7894 m 0,0 c 0,1.5964 0,3.1929 0,4.7893 m 0,0 c 0,1.5965 0,3.193 0,4.7894" />
        </g>
        <g
           transform="matrix(0.68181825,0,0,0.68181825,76.122457,27.82316)"
           id="g4535"
           style="stroke-width:2.12144709;stroke-miterlimit:10;stroke-dasharray:none">
          <path
             inkscape:connector-curvature="0"
             id="path4537"
             style="fill:none;stroke:#000000;stroke-width:2.12144709;stroke-linecap:round;stroke-linejoin:round;stroke-miterlimit:10;stroke-dasharray:none;stroke-opacity:1"
             d="m 358.3529,189.0134 c 0,0.037 -0.0123,0.0555 -0.037,0.0555 m 0,0 c -0.0248,0 -0.0433,0.006 -0.0556,0.0186 m 0,0 c -0.0123,0.0124 -0.0247,0.0185 -0.0371,0.0185 m 0,0 c -0.0124,0 -0.0185,0.0247 -0.0185,0.0741 m 0,0 c 0,0.0494 -0.006,0.1297 -0.0186,0.2408 m 0,0 c -0.0123,0.1112 -0.0246,0.2594 -0.037,0.4446 m 0,0 c -0.0124,0.1853 -0.0185,0.3767 -0.0185,0.5743 m 0,0 c 0,0.1976 0,0.4014 0,0.6113 m 0,0 c 0,0.21 0,0.42 0,0.6299 m 0,0 c 0,0.21 0,0.4323 0,0.6669 m 0,0 c 0,0.2347 0,0.4693 0,0.704 m 0,0 c 0,0.2346 0,0.4569 0,0.6669 m 0,0 c 0,0.21 0,0.4261 0,0.6484 m 0,0 c 0,0.2223 0,0.4569 0,0.7039 m 0,0 c 0,0.2471 0,0.5064 0,0.7781 m 0,0 c 0,0.2717 0,0.5372 0,0.7966 m 0,0 c 0,0.2594 0,0.5187 0,0.778 m 0,0 c 0,0.2594 0,0.5126 0,0.7596 m 0,0 c 0,0.247 0,0.494 0,0.741 m 0,0 c 0,0.247 0,0.4816 0,0.7039 m 0,0 c 0,0.2223 0,0.4446 0,0.6669 m 0,0 c 0,0.2224 0,0.4508 0,0.6855 m 0,0 c 0,0.2346 0,0.4693 0,0.7039 m 0,0 c 0,0.2347 0,0.4632 0,0.6855 m 0,0 c 0,0.2223 0,0.4384 0,0.6484 m 0,0 c 0,0.21 0,0.4261 0,0.6484 m 0,0 c 0,0.2223 0,0.4507 0,0.6854 m 0,0 c 0,0.2347 0,0.4693 0,0.704 m 0,0 c 0,0.2346 0,0.4754 0,0.7224 m 0,0 c 0,0.247 0,0.494 0,0.741 m 0,0 c 0,0.2471 0,0.4879 0,0.7225 m 0,0 c 0,0.2347 0,0.4508 0,0.6484 m 0,0 c 0,0.1976 0,0.389 0,0.5743 m 0,0 c 0,0.1853 0,0.3643 0,0.5372 m 0,0 c 0,0.1729 0.006,0.3397 0.0185,0.5002 m 0,0 c 0.0124,0.1606 0.0247,0.3211 0.037,0.4817 m 0,0 c 0.0124,0.1605 0.0247,0.3149 0.0371,0.4631 m 0,0 c 0.0124,0.1482 0.0186,0.2964 0.0186,0.4446 m 0,0 c 0,0.1482 0,0.2841 0,0.4076 m 0,0 c 0,0.1235 0,0.2346 0,0.3334 m 0,0 c 0,0.0989 0,0.1791 0,0.2409 m 0,0 c 0,0.0617 0,0.0679 0,0.0185 m 0,0 c 0,-0.0494 0,-0.21 0,-0.4817" />
        </g>
        <g
           transform="matrix(0.68181825,0,0,0.68181825,76.122457,27.82316)"
           id="g4539"
           style="stroke-width:2.12144709;stroke-miterlimit:10;stroke-dasharray:none">
          <path
             inkscape:connector-curvature="0"
             id="path4541"
             style="fill:none;stroke:#000000;stroke-width:2.12144709;stroke-linecap:round;stroke-linejoin:round;stroke-miterlimit:10;stroke-dasharray:none;stroke-opacity:1"
             d="m 359.9646,188.2631 c 0.1112,-0.0185 0.2223,-0.0309 0.3335,-0.037 m 0,0 c 0.1112,-0.006 0.284,-0.0155 0.5187,-0.0278 m 0,0 c 0.2346,-0.0124 0.5063,-0.0124 0.8151,0 m 0,0 c 0.3087,0.0123 0.6607,0.037 1.0559,0.074 m 0,0 c 0.3952,0.0371 0.8151,0.0989 1.2597,0.1853 m 0,0 c 0.4447,0.0865 0.8522,0.1914 1.2227,0.3149 m 0,0 c 0.3705,0.1235 0.7225,0.2655 1.0559,0.4261 m 0,0 c 0.3335,0.1606 0.6237,0.3273 0.8707,0.5002 m 0,0 c 0.247,0.1729 0.4817,0.352 0.704,0.5372 m 0,0 c 0.2223,0.1853 0.4075,0.3891 0.5558,0.6114 m 0,0 c 0.1482,0.2223 0.2778,0.4508 0.389,0.6854 m 0,0 c 0.1112,0.2347 0.2038,0.4755 0.2779,0.7225 m 0,0 c 0.0741,0.247 0.1296,0.4878 0.1667,0.7225 m 0,0 c 0.037,0.2347 0.0679,0.4631 0.0926,0.6854 m 0,0 c 0.0247,0.2223 0.0432,0.4384 0.0556,0.6484 m 0,0 c 0.0123,0.2099 -0.006,0.4075 -0.0556,0.5928 m 0,0 c -0.0494,0.1853 -0.1358,0.3767 -0.2594,0.5743 m 0,0 c -0.1235,0.1976 -0.2964,0.4014 -0.5187,0.6113 m 0,0 c -0.2223,0.21 -0.4754,0.4261 -0.7595,0.6484 m 0,0 c -0.284,0.2223 -0.5928,0.4384 -0.9263,0.6484 m 0,0 c -0.3334,0.21 -0.6916,0.4199 -1.0744,0.6299 m 0,0 c -0.3829,0.2099 -0.7595,0.4013 -1.1301,0.5742 m 0,0 c -0.3705,0.173 -0.7471,0.3335 -1.13,0.4817 m 0,0 c -0.3828,0.1482 -0.7595,0.2656 -1.13,0.352 m 0,0 c -0.3706,0.0864 -0.7349,0.1544 -1.093,0.2037 m 0,0 c -0.3582,0.0494 -0.6978,0.0803 -1.0189,0.0927 m 0,0 c -0.3211,0.0123 -0.5928,0.037 -0.8151,0.0741 m 0,0 c -0.2224,0.037 -0.5064,0.1297 -0.8522,0.2779" />
        </g>
      </g>
      <g
         transform="matrix(1.4237609,0,0,1.4237609,-163.13909,-232.903)"
         id="g5746"
         style="stroke-width:1.26080155;stroke-miterlimit:10;stroke-dasharray:none">
        <g
           transform="matrix(0.68181825,0,0,0.68181825,76.122457,27.82316)"
           id="g4599"
           style="stroke-width:1.84917533;stroke-miterlimit:10;stroke-dasharray:none">
          <path
             inkscape:connector-curvature="0"
             id="path4601"
             style="fill:none;stroke:#000000;stroke-width:1.84917533;stroke-linecap:round;stroke-linejoin:round;stroke-miterlimit:10;stroke-dasharray:none;stroke-opacity:1"
             d="m 90.58333,312.8334 c 0.31666,1.3413 0.63334,2.6826 0.95,4.0239 m 0,0 c 0.31667,1.3413 0.63333,2.6826 0.95001,4.024 m 0,0 c 0.31667,1.3413 0.63333,2.6826 0.94999,4.0239 m 0,0 c 0.31667,1.3414 0.63334,2.6827 0.95001,4.0241 m 0,0 c 0.31666,1.3413 0.63333,2.6826 0.95,4.0239" />
        </g>
        <g
           transform="matrix(0.68181825,0,0,0.68181825,76.122457,27.82316)"
           id="g4603"
           style="stroke-width:1.84917533;stroke-miterlimit:10;stroke-dasharray:none">
          <path
             inkscape:connector-curvature="0"
             id="path4605"
             style="fill:none;stroke:#000000;stroke-width:1.84917533;stroke-linecap:round;stroke-linejoin:round;stroke-miterlimit:10;stroke-dasharray:none;stroke-opacity:1"
             d="m 108.5833,313.25 c -0.769,1.3635 -1.5381,2.7271 -2.3072,4.0905 m 0,0 c -0.769,1.3636 -1.5381,2.7271 -2.3072,4.0906 m 0,0 c -0.769,1.3635 -1.5381,2.7271 -2.3072,4.0905 m 0,0 c -0.7691,1.3635 -1.5381,2.7271 -2.3072,4.0906 m 0,0 c -0.76907,1.3635 -1.53813,2.727 -2.30721,4.0906" />
        </g>
        <g
           transform="matrix(0.68181825,0,0,0.68181825,76.122457,27.82316)"
           id="g4607"
           style="stroke-width:1.84917533;stroke-miterlimit:10;stroke-dasharray:none">
          <path
             inkscape:connector-curvature="0"
             id="path4609"
             style="fill:none;stroke:#000000;stroke-width:1.84917533;stroke-linecap:round;stroke-linejoin:round;stroke-miterlimit:10;stroke-dasharray:none;stroke-opacity:1"
             d="m 93.60416,312.5 c 0.06945,0 0.11574,0.0185 0.13888,0.0555 m 0,0 c 0.02316,0.0371 0.0625,0.1019 0.11806,0.1945 m 0,0 c 0.05556,0.0926 0.10185,0.2176 0.13889,0.375 m 0,0 c 0.03704,0.1574 0.08335,0.3287 0.1389,0.5139 m 0,0 c 0.05555,0.1852 0.11111,0.3843 0.16667,0.5972 m 0,0 c 0.05555,0.213 0.1111,0.4259 0.16665,0.6389 m 0,0 c 0.05556,0.213 0.10649,0.4305 0.15278,0.6527 m 0,0 c 0.04631,0.2223 0.10187,0.4353 0.16667,0.639 m 0,0 c 0.06482,0.2037 0.12038,0.4121 0.16667,0.625 m 0,0 c 0.0463,0.2129 0.09723,0.4166 0.15278,0.6111 m 0,0 c 0.05555,0.1945 0.10649,0.3843 0.15278,0.5694 m 0,0 c 0.0463,0.1852 0.09259,0.3658 0.1389,0.5417 m 0,0 c 0.04628,0.1759 0.08796,0.3519 0.125,0.5278 m 0,0 c 0.03703,0.1759 0.08332,0.3565 0.13888,0.5417 m 0,0 c 0.05556,0.1851 0.10649,0.3703 0.15277,0.5555 m 0,0 c 0.04629,0.1852 0.09722,0.3796 0.15277,0.5833 m 0,0 c 0.05555,0.2037 0.10185,0.412 0.13889,0.625 m 0,0 c 0.03703,0.213 0.07871,0.4306 0.12501,0.6528 m 0,0 c 0.04629,0.2223 0.09723,0.4537 0.15278,0.6945 m 0,0 c 0.05555,0.2407 0.11111,0.4768 0.16667,0.7083 m 0,0 c 0.05555,0.2314 0.10647,0.4583 0.15277,0.6805 m 0,0 c 0.0463,0.2223 0.08333,0.4306 0.11111,0.625 m 0,0 c 0.02779,0.1944 0.0602,0.3843 0.09723,0.5695 m 0,0 c 0.03703,0.1852 0.0787,0.3611 0.12499,0.5278 m 0,0 c 0.0463,0.1667 0.08797,0.3148 0.125,0.4444 m 0,0 c 0.03704,0.1296 0.06018,0.2454 0.06945,0.3472 m 0,0 c 0.0093,0.1019 0.01389,0.1898 0.01389,0.2639 m 0,0 c 0,0.0741 0.0046,0.1435 0.01389,0.2084 m 0,0 c 0.0093,0.0648 0.01852,0.1203 0.02778,0.1666 m 0,0 c 0.0093,0.0463 0.02779,0.0926 0.05556,0.1389 m 0,0 c 0.02777,0.0463 0.0787,0.1158 0.15277,0.2083" />
        </g>
      </g>
      <g
         transform="matrix(1.4667736,0,0,1.4667736,-188.19346,-242.50613)"
         id="g5766"
         style="stroke-width:1.22382879;stroke-miterlimit:10;stroke-dasharray:none">
        <g
           transform="matrix(0.68181825,0,0,0.68181825,76.122457,27.82316)"
           id="g4631"
           style="stroke-width:1.79494882;stroke-miterlimit:10;stroke-dasharray:none">
          <path
             inkscape:connector-curvature="0"
             id="path4633"
             style="fill:none;stroke:#000000;stroke-width:1.79494882;stroke-linecap:round;stroke-linejoin:round;stroke-miterlimit:10;stroke-dasharray:none;stroke-opacity:1"
             d="m 195.0968,312.7162 c 0.9466,1.2528 1.8933,2.5056 2.84,3.7584 m 0,0 c 0.9466,1.2529 1.8932,2.5057 2.8399,3.7585 m 0,0 c 0.9466,1.2528 1.8933,2.5056 2.84,3.7585 m 0,0 c 0.9466,1.2528 1.8933,2.5056 2.8399,3.7584 m 0,0 c 0.9467,1.2528 1.8933,2.5057 2.84,3.7585" />
        </g>
        <g
           transform="matrix(0.68181825,0,0,0.68181825,76.122457,27.82316)"
           id="g4635"
           style="stroke-width:1.79494882;stroke-miterlimit:10;stroke-dasharray:none">
          <path
             inkscape:connector-curvature="0"
             id="path4637"
             style="fill:none;stroke:#000000;stroke-width:1.79494882;stroke-linecap:round;stroke-linejoin:round;stroke-miterlimit:10;stroke-dasharray:none;stroke-opacity:1"
             d="m 206.8332,311.7807 c -0.8655,1.3159 -1.731,2.6319 -2.5966,3.9479 m 0,0 c -0.8655,1.316 -1.731,2.632 -2.5965,3.9479 m 0,0 c -0.8655,1.316 -1.731,2.6319 -2.5966,3.948 m 0,0 c -0.8655,1.3159 -1.731,2.6319 -2.5965,3.9479 m 0,0 c -0.8655,1.3159 -1.7311,2.6319 -2.5966,3.9479" />
        </g>
        <g
           transform="matrix(0.68181825,0,0,0.68181825,76.122457,27.82316)"
           id="g4639"
           style="stroke-width:1.79494882;stroke-miterlimit:10;stroke-dasharray:none">
          <path
             inkscape:connector-curvature="0"
             id="path4641"
             style="fill:none;stroke:#000000;stroke-width:1.79494882;stroke-linecap:round;stroke-linejoin:round;stroke-miterlimit:10;stroke-dasharray:none;stroke-opacity:1"
             d="m 209.47528,312.40888 c -0.9197,1.3279 -12.42802,18.6046 -13.34772,19.9325"
             sodipodi:nodetypes="cc" />
        </g>
      </g>
      <g
         transform="matrix(1.3388116,0,0,1.3388116,-173.89752,-209.97316)"
         id="g5774"
         style="stroke-width:1.34080088;stroke-miterlimit:10;stroke-dasharray:none">
        <g
           transform="matrix(0.68181825,0,0,0.68181825,76.122457,27.82316)"
           id="g4643"
           style="stroke-width:1.96650779;stroke-miterlimit:10;stroke-dasharray:none">
          <path
             inkscape:connector-curvature="0"
             id="path4645"
             style="fill:none;stroke:#000000;stroke-width:1.96650779;stroke-linecap:round;stroke-linejoin:round;stroke-miterlimit:10;stroke-dasharray:none;stroke-opacity:1"
             d="m 265.6667,309.75 c -0.6637,1.4983 -1.3274,2.9966 -1.991,4.4949 m 0,0 c -0.6637,1.4983 -1.3273,2.9966 -1.991,4.4949 m 0,0 c -0.6637,1.4983 -1.3273,2.9966 -1.991,4.4949 m 0,0 c -0.6637,1.4983 -1.3273,2.9966 -1.991,4.4949 m 0,0 c -0.6636,1.4983 -1.3273,2.9966 -1.991,4.4949" />
        </g>
        <g
           transform="matrix(0.68181825,0,0,0.68181825,76.122457,27.82316)"
           id="g4647"
           style="stroke-width:1.96650779;stroke-miterlimit:10;stroke-dasharray:none">
          <path
             inkscape:connector-curvature="0"
             id="path4649"
             style="fill:none;stroke:#000000;stroke-width:1.96650779;stroke-linecap:round;stroke-linejoin:round;stroke-miterlimit:10;stroke-dasharray:none;stroke-opacity:1"
             d="m 268.76125,310.12152 c -0.6702,1.505 -1.3404,3.0098 -2.0106,4.5147 m 0,0 c -0.6702,1.5049 -1.3404,3.0098 -2.0106,4.5146 m 0,0 c -0.6702,1.505 -1.3405,3.0099 -2.0107,4.5147 m 0,0 c -0.6702,1.5049 -1.3404,3.0098 -2.0106,4.5147 m 0,0 c -0.6702,1.5049 -1.3405,3.0098 -2.0106,4.5146" />
        </g>
        <g
           transform="matrix(0.68181825,0,0,0.68181825,75.729436,27.82316)"
           id="g4651"
           style="stroke-width:1.96650779;stroke-miterlimit:10;stroke-dasharray:none">
          <path
             inkscape:connector-curvature="0"
             id="path4653"
             style="fill:none;stroke:#000000;stroke-width:1.96650779;stroke-linecap:round;stroke-linejoin:round;stroke-miterlimit:10;stroke-dasharray:none;stroke-opacity:1"
             d="m 254.5,311.0208 c 0,0.014 0,0.0279 0,0.0417 m 0,0 c 0,0.0139 0,0.0348 0,0.0625 m 0,0 c 0,0.0278 0.005,0.0555 0.0139,0.0833 m 0,0 c 0.009,0.0278 0.037,0.0741 0.0833,0.139 m 0,0 c 0.0463,0.0648 0.125,0.1713 0.2361,0.3194 m 0,0 c 0.1112,0.1481 0.2686,0.3704 0.4723,0.6667 m 0,0 c 0.2037,0.2963 0.4398,0.6389 0.7083,1.0277 m 0,0 c 0.2685,0.3889 0.5648,0.8056 0.8889,1.25 m 0,0 c 0.324,0.4445 0.6481,0.8797 0.9722,1.3056 m 0,0 c 0.3241,0.426 0.6342,0.8287 0.9305,1.2083 m 0,0 c 0.2963,0.3796 0.5602,0.7223 0.7917,1.0278 m 0,0 c 0.2315,0.3055 0.4306,0.5602 0.5973,0.7639 m 0,0 c 0.1666,0.2037 0.3055,0.3796 0.4166,0.5278 m 0,0 c 0.1112,0.1481 0.2037,0.2638 0.2778,0.3472 m 0,0 c 0.0741,0.0833 0.1296,0.1528 0.1666,0.2083 m 0,0 c 0.0371,0.0556 0.0695,0.0926 0.0973,0.1111 m 0,0 c 0.0277,0.0185 0.0509,0.0324 0.0694,0.0417 m 0,0 c 0.0186,0.009 0.0417,0.0139 0.0695,0.0139 m 0,0 c 0.0278,0 0.0509,0.005 0.0694,0.0139 m 0,0 c 0.0185,0.009 0.0371,0.0324 0.0556,0.0694" />
        </g>
      </g>
      <g
         transform="matrix(1.4976364,0,0,1.4976364,-223.0307,-249.28818)"
         id="g5782"
         style="stroke-width:1.19860864;stroke-miterlimit:10;stroke-dasharray:none">
        <g
           transform="matrix(0.68181825,0,0,0.68181825,76.122457,27.82316)"
           id="g4655"
           style="stroke-width:1.75795913;stroke-miterlimit:10;stroke-dasharray:none">
          <path
             inkscape:connector-curvature="0"
             id="path4657"
             style="fill:none;stroke:#000000;stroke-width:1.75795913;stroke-linecap:round;stroke-linejoin:round;stroke-miterlimit:10;stroke-dasharray:none;stroke-opacity:1"
             d="m 303.2625,311.1651 c 1.6544,0 3.3089,0 4.9633,0 m 0,0 c 1.6544,0 3.3088,0 4.9632,0 m 0,0 c 1.6544,0 3.3089,0 4.9633,0" />
        </g>
        <g
           transform="matrix(0.68181825,0,0,0.68181825,76.122457,27.82316)"
           id="g4659"
           style="stroke-width:1.75795913;stroke-miterlimit:10;stroke-dasharray:none">
          <path
             inkscape:connector-curvature="0"
             id="path4661"
             style="fill:none;stroke:#000000;stroke-width:1.75795913;stroke-linecap:round;stroke-linejoin:round;stroke-miterlimit:10;stroke-dasharray:none;stroke-opacity:1"
             d="m 301.2869,331.2394 c 1.617,0 3.234,0 4.851,0 m 0,0 c 1.6171,0 3.2341,0 4.8511,0 m 0,0 c 1.617,0 3.2341,0 4.8511,0 m 0,0 c 1.6171,0 3.2341,0 4.8511,0" />
        </g>
        <g
           transform="matrix(0.68181825,0,0,0.68181825,76.122457,27.82316)"
           id="g4663"
           style="stroke-width:1.75795913;stroke-miterlimit:10;stroke-dasharray:none">
          <path
             inkscape:connector-curvature="0"
             id="path4665"
             style="fill:none;stroke:#000000;stroke-width:1.75795913;stroke-linecap:round;stroke-linejoin:round;stroke-miterlimit:10;stroke-dasharray:none;stroke-opacity:1"
             d="m 318.6187,311.8836 c -0.923,1.0583 -1.8459,2.1166 -2.7689,3.175 m 0,0 c -0.923,1.0583 -1.8459,2.1167 -2.7689,3.175 m 0,0 c -0.9229,1.0584 -1.8459,2.1167 -2.7689,3.175 m 0,0 c -0.923,1.0583 -1.846,2.1167 -2.7689,3.175 m 0,0 c -0.923,1.0583 -1.846,2.1167 -2.7689,3.175 m 0,0 c -0.923,1.0584 -1.846,2.1167 -2.7689,3.175" />
        </g>
        <g
           transform="matrix(0.68181825,0,0,0.68181825,76.122457,27.82316)"
           id="g4667"
           style="stroke-width:1.75795913;stroke-miterlimit:10;stroke-dasharray:none">
          <path
             inkscape:connector-curvature="0"
             id="path4669"
             style="fill:none;stroke:#000000;stroke-width:1.75795913;stroke-linecap:round;stroke-linejoin:round;stroke-miterlimit:10;stroke-dasharray:none;stroke-opacity:1"
             d="m 320.3698,314.3307 c 0.03,-0.0449 0.04,-0.0699 0.03,-0.0749 m 0,0 c -0.01,-0.005 -0.02,-0.0125 -0.03,-0.0225 m 0,0 c -0.01,-0.01 -0.0349,0.005 -0.0748,0.045 m 0,0 c -0.0399,0.0399 -0.0998,0.1197 -0.1796,0.2395 m 0,0 c -0.0798,0.1197 -0.2145,0.2943 -0.4041,0.5238 m 0,0 c -0.1896,0.2295 -0.469,0.5438 -0.8382,0.9429 m 0,0 c -0.3692,0.3991 -0.8032,0.8581 -1.3021,1.377 m 0,0 c -0.4989,0.5188 -1.0327,1.0826 -1.6015,1.6913 m 0,0 c -0.5687,0.6086 -1.1374,1.2223 -1.7062,1.8409 m 0,0 c -0.5688,0.6186 -1.1275,1.2373 -1.6763,1.8559 m 0,0 c -0.5488,0.6187 -1.0627,1.2074 -1.5416,1.7662 m 0,0 c -0.479,0.5587 -0.923,1.0975 -1.3321,1.6163 m 0,0 c -0.4091,0.5189 -0.7683,0.9779 -1.0776,1.3771 m 0,0 c -0.3093,0.3991 -0.5737,0.7483 -0.7933,1.0477 m 0,0 c -0.2195,0.2993 -0.3941,0.5288 -0.5238,0.6884 m 0,0 c -0.1297,0.1597 -0.2844,0.3293 -0.464,0.5089" />
        </g>
      </g>
      <g
         transform="matrix(1.6200121,0,0,1.6200121,-207.00061,-281.83283)"
         id="g5754"
         style="stroke-width:1.10806572;stroke-miterlimit:10;stroke-dasharray:none">
        <g
           transform="matrix(0.68181825,0,0,0.68181825,76.122457,27.82316)"
           id="g4611"
           style="stroke-width:1.62516284;stroke-miterlimit:10;stroke-dasharray:none">
          <path
             inkscape:connector-curvature="0"
             id="path4613"
             style="fill:none;stroke:#000000;stroke-width:1.62516284;stroke-linecap:round;stroke-linejoin:round;stroke-miterlimit:10;stroke-dasharray:none;stroke-opacity:1"
             d="m 140.3333,314.4167 c 0.4584,1.4141 0.9167,2.8283 1.375,4.2425 m 0,0 c 0.4584,1.4142 0.9167,2.8284 1.375,4.2426 m 0,0 c 0.4584,1.4141 0.9167,2.8283 1.375,4.2425 m 0,0 c 0.4584,1.4142 0.9167,2.8284 1.375,4.2426" />
        </g>
        <g
           transform="matrix(0.68181825,0,0,0.68181825,76.122457,27.82316)"
           id="g4615"
           style="stroke-width:1.62516284;stroke-miterlimit:10;stroke-dasharray:none">
          <path
             inkscape:connector-curvature="0"
             id="path4617"
             style="fill:none;stroke:#000000;stroke-width:1.62516284;stroke-linecap:round;stroke-linejoin:round;stroke-miterlimit:10;stroke-dasharray:none;stroke-opacity:1"
             d="m 162.5,314.25 c -0.5884,1.5221 -1.1768,3.0442 -1.7651,4.5662 m 0,0 c -0.5884,1.5221 -1.1768,3.0442 -1.7651,4.5662 m 0,0 c -0.5884,1.522 -1.1768,3.0441 -1.7651,4.5662 m 0,0 c -0.5884,1.5221 -1.1768,3.0441 -1.7652,4.5662" />
        </g>
        <g
           transform="matrix(0.68181825,0,0,0.68181825,76.122457,27.82316)"
           id="g4619"
           style="stroke-width:1.62516284;stroke-miterlimit:10;stroke-dasharray:none">
          <path
             inkscape:connector-curvature="0"
             id="path4621"
             style="fill:none;stroke:#000000;stroke-width:1.62516284;stroke-linecap:round;stroke-linejoin:round;stroke-miterlimit:10;stroke-dasharray:none;stroke-opacity:1"
             d="m 150.5417,321.7292 c -0.0834,0.1527 -0.176,0.3333 -0.2778,0.5416 m 0,0 c -0.1019,0.2084 -0.2639,0.5487 -0.4861,1.0209 m 0,0 c -0.2222,0.4722 -0.463,1.0046 -0.7222,1.5972 m 0,0 c -0.2593,0.5926 -0.5186,1.1991 -0.7778,1.8194 m 0,0 c -0.2593,0.6204 -0.4908,1.1945 -0.6945,1.7223 m 0,0 c -0.2037,0.5277 -0.375,0.9953 -0.5139,1.4027 m 0,0 c -0.1389,0.4075 -0.2546,0.7362 -0.3472,0.9861 m 0,0 c -0.0926,0.2501 -0.2222,0.5324 -0.3889,0.8473" />
        </g>
        <g
           transform="matrix(0.68181825,0,0,0.68181825,76.122457,27.82316)"
           id="g4623"
           style="stroke-width:1.62516284;stroke-miterlimit:10;stroke-dasharray:none">
          <path
             inkscape:connector-curvature="0"
             id="path4625"
             style="fill:none;stroke:#000000;stroke-width:1.62516284;stroke-linecap:round;stroke-linejoin:round;stroke-miterlimit:10;stroke-dasharray:none;stroke-opacity:1"
             d="m 151.2083,321.5417 c 0.0278,0.0277 0.0695,0.1157 0.125,0.2638 m 0,0 c 0.0556,0.1482 0.1528,0.4074 0.2917,0.7778 m 0,0 c 0.1389,0.3704 0.3009,0.838 0.4861,1.4028 m 0,0 c 0.1852,0.5648 0.3797,1.1621 0.5834,1.7917 m 0,0 c 0.2036,0.6297 0.3842,1.2177 0.5416,1.7639 m 0,0 c 0.1574,0.5463 0.2963,1.0416 0.4167,1.4861 m 0,0 c 0.1203,0.4444 0.2176,0.8518 0.2916,1.2222 m 0,0 c 0.0741,0.3704 0.1528,0.6945 0.2361,0.9723 m 0,0 c 0.0834,0.2777 0.2176,0.6203 0.4028,1.0277" />
        </g>
        <g
           transform="matrix(0.68181825,0,0,0.68181825,76.122457,27.82316)"
           id="g4627"
           style="stroke-width:1.62516284;stroke-miterlimit:10;stroke-dasharray:none">
          <path
             inkscape:connector-curvature="0"
             id="path4629"
             style="fill:none;stroke:#000000;stroke-width:1.62516284;stroke-linecap:round;stroke-linejoin:round;stroke-miterlimit:10;stroke-dasharray:none;stroke-opacity:1"
             d="m 143.3958,314.125 c 0.0417,0.0833 0.0787,0.2315 0.1111,0.4445 m 0,0 c 0.0325,0.2129 0.0996,0.5463 0.2014,1 m 0,0 c 0.1019,0.4537 0.2269,0.9907 0.375,1.611 m 0,0 c 0.1482,0.6204 0.3056,1.2316 0.4723,1.8334 m 0,0 c 0.1666,0.6018 0.3333,1.1852 0.5,1.75 m 0,0 c 0.1666,0.5648 0.3148,1.0741 0.4444,1.5277 m 0,0 c 0.1296,0.4537 0.2639,0.8797 0.4028,1.2779 m 0,0 c 0.1388,0.3981 0.2592,0.7453 0.3611,1.0416 m 0,0 c 0.1018,0.2963 0.1991,0.5741 0.2917,0.8334 m 0,0 c 0.0926,0.2592 0.2129,0.6111 0.3611,1.0555" />
        </g>
      </g>
    </g>
  </g>
</svg>
